<svg aria-hidden="true" style="position: absolute; width: 0; height: 0; overflow: hidden;" version="1.1" xmlns="http://www.w3.org/2000/svg" xmlns:xlink="http://www.w3.org/1999/xlink">
<defs>
<symbol id="icon-arrow_right" viewBox="0 0 32 32">
<path fill="none" stroke="#fff" style="stroke: var(--color1, #fff)" stroke-linejoin="miter" stroke-linecap="butt" stroke-miterlimit="4" stroke-width="2.9091" d="M12.801 25.599l8.533-8.533-8.533-8.533"></path>
</symbol>
<symbol id="icon-Group" viewBox="0 0 35 32">
<path stroke-linejoin="miter" stroke-linecap="butt" stroke-miterlimit="10" stroke-width="0.3765" d="M17.909 4.847c-0.287 0.355-0.502 0.639-0.61 0.817-0.108-0.142-0.323-0.462-0.61-0.817"></path>
<path stroke-linejoin="miter" stroke-linecap="butt" stroke-miterlimit="10" stroke-width="0.3765" d="M16.081 4.066c-2.116-2.379-6.562-5.86-11.94-1.847-7.53 5.682-1.434 12.429-1.434 12.429l13.626 15.803"></path>
<path stroke-linejoin="miter" stroke-linecap="butt" stroke-miterlimit="10" stroke-width="0.3765" d="M16.654 30.842l0.681 0.781 0.645-0.781"></path>
<path stroke-linejoin="miter" stroke-linecap="butt" stroke-miterlimit="10" stroke-width="0.3765" d="M18.662 30.061l13.267-15.413c0 0 6.096-6.747-1.434-12.429-5.665-4.262-10.291-0.107-12.263 2.202"></path>
</symbol>
<symbol id="icon-marcet" viewBox="0 0 34 32">
<path stroke-linejoin="miter" stroke-linecap="butt" stroke-miterlimit="10" stroke-width="0.381" d="M30.349 13.916v16.153c0 0.758-0.622 1.378-1.381 1.378h-23.651c-0.76 0-1.381-0.62-1.381-1.378v-16.187"></path>
<path stroke-linejoin="miter" stroke-linecap="butt" stroke-miterlimit="10" stroke-width="0.381" d="M0 31.481h34.286"></path>
<path stroke-linejoin="miter" stroke-linecap="butt" stroke-miterlimit="10" stroke-width="0.381" d="M2.486 11.23v-1.791l4.696-8.886h19.543l5.11 8.886v1.791"></path>
<path stroke-linejoin="miter" stroke-linecap="butt" stroke-miterlimit="10" stroke-width="0.381" d="M25.965 12.229v13.845c0 0.758-0.518 1.343-1.278 1.343h-14.916c-0.76 0-1.45-0.62-1.45-1.343v-13.845"></path>
<path stroke-linejoin="miter" stroke-linecap="butt" stroke-miterlimit="10" stroke-width="0.381" d="M18.092 19.496l5.179 5.511"></path>
<path stroke-linejoin="miter" stroke-linecap="butt" stroke-miterlimit="10" stroke-width="0.381" d="M21.545 20.185l2.21 2.48"></path>
<path stroke-linejoin="miter" stroke-linecap="butt" stroke-miterlimit="10" stroke-width="0.381" d="M2.486 11.23c0 1.722 1.312 3.1 2.935 3.1s2.935-1.378 2.935-3.1"></path>
<path stroke-linejoin="miter" stroke-linecap="butt" stroke-miterlimit="10" stroke-width="0.381" d="M8.356 11.23c0 1.722 1.312 3.1 2.935 3.1s2.935-1.378 2.935-3.1"></path>
<path stroke-linejoin="miter" stroke-linecap="butt" stroke-miterlimit="10" stroke-width="0.381" d="M14.225 11.23c0 1.722 1.312 3.1 2.935 3.1s2.935-1.378 2.935-3.1"></path>
<path stroke-linejoin="miter" stroke-linecap="butt" stroke-miterlimit="10" stroke-width="0.381" d="M20.095 11.23c0 1.722 1.312 3.1 2.935 3.1s2.935-1.378 2.935-3.1"></path>
<path stroke-linejoin="miter" stroke-linecap="butt" stroke-miterlimit="10" stroke-width="0.381" d="M25.965 11.23c0 1.722 1.312 3.1 2.935 3.1s2.935-1.378 2.935-3.1"></path>
</symbol>
<symbol id="icon-crown" viewBox="0 0 43 32">
<path stroke-linejoin="miter" stroke-linecap="butt" stroke-miterlimit="10" stroke-width="0.4706" d="M3.32 31.529h36.654"></path>
<path stroke-linejoin="miter" stroke-linecap="butt" stroke-miterlimit="10" stroke-width="0.4706" d="M36.345 31.529c-0.719-4.284 3.558-16.422 6.073-13.923s-7.403 3.748-9.343 2.142c-2.156-1.785-2.408-13.53 1.797-12.495 4.312 1.071-4.097 11.852-9.343 9.996-5.031-1.785-8.553-16.779-3.881-16.779s1.15 14.994-3.881 16.779c-5.247 1.856-13.655-8.925-9.343-9.996 4.204-1.035 3.953 10.71 1.797 12.495-1.941 1.607-11.859 0.357-9.343-2.142s6.792 9.639 6.073 13.923"></path>
<path stroke-linejoin="miter" stroke-linecap="butt" stroke-miterlimit="10" stroke-width="0.4706" d="M21.719 28.316c-2.336 0-3.593-1.428-3.593-3.748 0-2.535 3.593-5.176 3.593-5.176s3.234 2.606 3.234 5.176c0 2.142-0.827 3.748-3.234 3.748z"></path>
</symbol>
<symbol id="icon-icon-secure-payment-1" viewBox="0 0 42 32">
<path d="M6.911 23.953v-3.339c-0.001-0.547-0.218-1.072-0.604-1.458s-0.908-0.605-1.454-0.606h-1.361c-0.545 0.001-1.068 0.219-1.454 0.606s-0.603 0.911-0.604 1.458v3.339h-1.436v8.015h8.348v-8.015h-1.436zM3.493 19.001h1.361c0.426 0.001 0.835 0.171 1.136 0.474s0.471 0.712 0.472 1.14v3.339h-4.578v-3.339c0.001-0.428 0.171-0.838 0.472-1.14s0.71-0.473 1.136-0.474zM0.449 31.518v-7.114h7.45v7.114h-7.45zM37.878 0h-30.069c-0.976 0.001-1.911 0.39-2.601 1.082s-1.078 1.631-1.079 2.61v10.986h0.449v-6.484h23.068c0.097 1.823 1.368 3.242 2.905 3.242 0.422-0.005 0.838-0.11 1.212-0.307s0.697-0.479 0.942-0.824c0.245 0.345 0.568 0.627 0.943 0.823s0.789 0.302 1.212 0.308c1.54 0 2.811-1.419 2.908-3.242h3.332v13.778c0 0.86-0.34 1.684-0.946 2.292s-1.428 0.95-2.285 0.95h-26.019v0.45h26.030c0.976-0.001 1.911-0.39 2.601-1.082s1.078-1.631 1.079-2.61v-18.28c-0.001-0.979-0.389-1.917-1.079-2.61s-1.625-1.081-2.601-1.082v0zM34.87 10.986c-0.402-0.013-0.794-0.13-1.137-0.339s-0.627-0.505-0.823-0.857l-0.194-0.306-0.19 0.306c-0.197 0.353-0.481 0.648-0.825 0.858s-0.737 0.326-1.139 0.338c-1.361 0-2.467-1.354-2.467-3.018s1.106-3.015 2.467-3.015c0.402 0.012 0.795 0.129 1.139 0.338s0.628 0.505 0.825 0.858l0.19 0.306 0.194-0.306c0.196-0.352 0.48-0.647 0.823-0.857s0.735-0.326 1.137-0.339c1.364 0 2.47 1.354 2.47 3.015s-1.106 3.018-2.47 3.018zM32.715 5.634c-0.245-0.345-0.568-0.628-0.942-0.824s-0.79-0.302-1.212-0.307c-1.537 0-2.808 1.419-2.905 3.242h-23.079v-4.052c0-0.86 0.34-1.684 0.946-2.292s1.428-0.95 2.285-0.95h30.069c0.857 0 1.679 0.342 2.285 0.95s0.946 1.433 0.946 2.292v4.052h-3.332c-0.097-1.823-1.368-3.242-2.908-3.242-0.422 0.006-0.837 0.111-1.212 0.308s-0.697 0.479-0.943 0.823z"></path>
</symbol>
<symbol id="icon-pocket" viewBox="0 0 22 32">
<path stroke-linejoin="miter" stroke-linecap="butt" stroke-miterlimit="10" stroke-width="0.3478" d="M20.098 31.652h-17.938c-1.027 0-1.842-0.851-1.812-1.884l0.815-20.302h19.629l1.117 20.272c0.060 1.033-0.755 1.915-1.812 1.915z"></path>
<path stroke-linejoin="miter" stroke-linecap="butt" stroke-miterlimit="10" stroke-width="0.3478" d="M6.328 11.289l2.144-8.692c0.332-1.337 1.51-2.249 2.869-2.249 1.45 0 2.688 1.064 2.929 2.492l1.389 8.449"></path>
<path stroke-linejoin="miter" stroke-linecap="butt" stroke-miterlimit="10" stroke-width="0.3478" d="M20.786 11.198h-10.683"></path>
</symbol>
<symbol id="icon-account" viewBox="0 0 32 32">
<path fill="none" stroke="#28292f" style="stroke: var(--color3, #28292f)" stroke-linejoin="miter" stroke-linecap="butt" stroke-miterlimit="4" stroke-width="1.28" d="M30.080 16c0 7.776-6.304 14.080-14.080 14.080s-14.080-6.304-14.080-14.080c0-7.776 6.304-14.080 14.080-14.080s14.080 6.304 14.080 14.080z"></path>
<path fill="none" stroke="#28292f" style="stroke: var(--color3, #28292f)" stroke-linejoin="miter" stroke-linecap="butt" stroke-miterlimit="4" stroke-width="1.28" d="M20.48 12.16c0 2.474-2.006 4.48-4.48 4.48s-4.48-2.006-4.48-4.48c0-2.474 2.006-4.48 4.48-4.48s4.48 2.006 4.48 4.48z"></path>
<path fill="none" stroke="#28292f" style="stroke: var(--color3, #28292f)" stroke-linejoin="miter" stroke-linecap="butt" stroke-miterlimit="4" stroke-width="1.28" d="M8.96 28.16c0-2.56-0.094-9.6 7.040-9.6s7.040 6.4 7.040 9.6"></path>
</symbol>
<symbol id="icon-arrow_down" viewBox="0 0 32 32">
<path fill="none" stroke="#28292f" style="stroke: var(--color3, #28292f)" stroke-linejoin="miter" stroke-linecap="butt" stroke-miterlimit="4" stroke-width="2.1333" d="M6.4 12.8l8.533 8.533 8.533-8.533"></path>
</symbol>
<symbol id="icon-bedroom--" viewBox="0 0 32 32">
<path d="M30.77 14.772c0.008-0.224-0.031-0.448-0.113-0.657s-0.207-0.399-0.365-0.557c-0.159-0.159-0.348-0.283-0.557-0.365s-0.432-0.121-0.657-0.113h-24.923v-10.154c-0.013-0.185 0.014-0.371 0.079-0.545s0.167-0.332 0.298-0.463c0.131-0.131 0.289-0.233 0.463-0.298s0.36-0.092 0.545-0.079h2.462c0.786 0 1.553 0.134 1.674 1.581-0.53 0.088-1.008 0.367-1.345 0.784s-0.509 0.945-0.482 1.481v2.462c0 0.122 0.049 0.24 0.135 0.326s0.204 0.135 0.326 0.135h3.692c0.122 0 0.24-0.049 0.326-0.135s0.135-0.204 0.135-0.326v-2.462c0.027-0.543-0.15-1.077-0.496-1.496s-0.836-0.695-1.374-0.773c-0.121-1.674-0.966-2.5-2.591-2.5h-2.462c-0.307-0.014-0.613 0.036-0.9 0.147s-0.547 0.28-0.764 0.498c-0.217 0.217-0.387 0.477-0.498 0.764s-0.161 0.593-0.147 0.9v10.154h-0.308c-0.224-0.008-0.448 0.031-0.657 0.113s-0.399 0.207-0.557 0.365c-0.159 0.159-0.283 0.348-0.365 0.557s-0.121 0.432-0.113 0.657c-0.009 0.446 0.159 0.878 0.468 1.201 0 0.011-0.006 0.020-0.006 0.030v4c-0.010 1.242 0.255 2.472 0.776 3.6s1.286 2.126 2.239 2.923l-1.756 4.246c-0.021 0.057-0.030 0.117-0.027 0.178s0.017 0.12 0.043 0.175 0.062 0.104 0.107 0.145c0.045 0.041 0.097 0.073 0.154 0.093 0.050 0.017 0.103 0.025 0.156 0.024 0.095 0 0.187-0.029 0.265-0.084s0.137-0.131 0.169-0.22l1.654-3.996c1.392 0.907 3.020 1.386 4.682 1.378h11.692c1.662 0.008 3.289-0.472 4.682-1.378l1.654 3.996c0.032 0.089 0.091 0.166 0.169 0.22s0.17 0.084 0.265 0.084c0.054-0 0.107-0.009 0.158-0.028 0.057-0.021 0.109-0.052 0.154-0.093s0.081-0.090 0.107-0.145c0.026-0.055 0.040-0.114 0.043-0.175s-0.007-0.121-0.027-0.178l-1.756-4.246c0.953-0.797 1.718-1.795 2.239-2.923s0.786-2.357 0.776-3.6v-3.996c0-0.010-0.006-0.020-0.006-0.030 0.308-0.323 0.476-0.754 0.466-1.201zM10.155 4.002c0.185-0.013 0.371 0.014 0.545 0.079s0.332 0.167 0.463 0.298c0.131 0.131 0.233 0.289 0.298 0.463s0.092 0.36 0.079 0.545v2h-2.769v-2c-0.013-0.185 0.014-0.371 0.079-0.545s0.167-0.332 0.298-0.463c0.131-0.131 0.289-0.233 0.463-0.298s0.36-0.092 0.545-0.079zM29.386 20.002c0.011 0.993-0.177 1.978-0.552 2.898s-0.93 1.755-1.632 2.457c-0.702 0.702-1.538 1.257-2.457 1.633s-1.905 0.563-2.898 0.552h-11.692c-0.993 0.011-1.978-0.177-2.898-0.552s-1.755-0.93-2.457-1.633c-0.702-0.702-1.257-1.538-1.632-2.457s-0.563-1.905-0.552-2.898v-3.569c0.102 0.018 0.205 0.027 0.308 0.028h26.154c0.103-0.001 0.206-0.011 0.308-0.028v3.569zM29.078 15.541h-26.154c-0.204 0-0.4-0.081-0.544-0.225s-0.225-0.34-0.225-0.544 0.081-0.4 0.225-0.544c0.144-0.144 0.34-0.225 0.544-0.225h26.154c0.204 0 0.4 0.081 0.544 0.225s0.225 0.34 0.225 0.544c0 0.204-0.081 0.4-0.225 0.544s-0.34 0.225-0.544 0.225z"></path>
</symbol>
<symbol id="icon-bedroom" viewBox="0 0 32 32">
<path fill="#ff6869" style="fill: var(--color2, #ff6869)" d="M29.933 20.122l-5.317-13.345v-4.306c0.027-0.249-0.002-0.501-0.085-0.737s-0.218-0.451-0.395-0.628c-0.177-0.177-0.392-0.312-0.628-0.395s-0.488-0.112-0.737-0.085h-13.538c-0.249-0.027-0.501 0.002-0.737 0.085s-0.451 0.218-0.628 0.395c-0.177 0.177-0.312 0.392-0.396 0.628s-0.112 0.488-0.085 0.737v4.306l-5.317 13.345c-0.146 0.353-0.222 0.731-0.222 1.112v3.476c0.008 0.337 0.101 0.667 0.27 0.959s0.411 0.535 0.701 0.708c0.253 0.146 0.494 0.312 0.721 0.496v3.742c0 0.204 0.081 0.399 0.226 0.543s0.34 0.225 0.544 0.226h2.154c0.204-0 0.399-0.081 0.544-0.226s0.225-0.34 0.226-0.543v-1.39c0.090 0.006 0.178 0.013 0.275 0.013 2.831 0 2.831-2.862 5.662-2.862s2.831 2.862 5.662 2.862c2.831 0 2.831-2.862 5.662-2.862 0.1 0 0.185 0.015 0.279 0.023v4.216c0 0.204 0.081 0.399 0.226 0.543s0.34 0.225 0.544 0.226h2.154c0.204-0 0.399-0.081 0.544-0.226s0.225-0.34 0.226-0.543v-1.969c0.106 0.026 0.215 0.040 0.324 0.041 0.18 0.004 0.359-0.028 0.526-0.095s0.319-0.166 0.447-0.293c0.128-0.127 0.229-0.278 0.296-0.444s0.102-0.345 0.099-0.525v-6.097c0-0.381-0.075-0.759-0.221-1.112zM8.308 2.471c0-0.672 0.25-0.923 0.923-0.923h13.538c0.673 0 0.923 0.25 0.923 0.923v3.845h-15.385v-3.845zM2.926 20.463l5.269-13.227h15.611l5.27 13.227h-26.149zM6.308 30.462h-1.846v-2.73c0.494 0.591 1.129 1.049 1.846 1.331v1.399zM27.539 30.462h-1.846v-3.861c0.71 0.35 1.339 0.846 1.846 1.454v2.407zM29.231 27.331c0.002 0.059-0.008 0.117-0.029 0.172s-0.055 0.104-0.096 0.145c-0.042 0.041-0.092 0.073-0.147 0.094s-0.114 0.029-0.172 0.026c-0.144-0.002-0.282-0.059-0.385-0.16-0.151-0.14-0.295-0.288-0.441-0.436-0.748-0.765-1.68-1.718-3.47-1.718-1.801 0-2.737 0.946-3.488 1.705-0.665 0.672-1.145 1.157-2.175 1.157s-1.509-0.485-2.174-1.157c-0.751-0.757-1.686-1.705-3.484-1.705s-2.738 0.947-3.489 1.705c-0.664 0.672-1.145 1.157-2.174 1.157-1.169 0-1.626-0.461-2.379-1.224-0.541-0.591-1.164-1.101-1.85-1.515-0.149-0.093-0.273-0.22-0.361-0.372s-0.139-0.322-0.146-0.497v-3.322h26.462v5.945z"></path>
</symbol>
<symbol id="icon-BRANDER" viewBox="0 0 395 32">
<path d="M0.853 24c-0.213 0-0.395-0.064-0.544-0.192-0.128-0.149-0.192-0.331-0.192-0.544v-20.896c0-0.235 0.064-0.416 0.192-0.544 0.149-0.149 0.331-0.224 0.544-0.224h8.128c2.411 0 4.309 0.587 5.696 1.76s2.080 2.869 2.080 5.088c0 2.219-0.693 3.915-2.080 5.088-1.365 1.152-3.264 1.728-5.696 1.728h-5.664v8c0 0.213-0.075 0.395-0.224 0.544-0.149 0.128-0.331 0.192-0.544 0.192h-1.696zM8.821 12.576c1.557 0 2.731-0.352 3.52-1.056 0.811-0.704 1.216-1.728 1.216-3.072s-0.395-2.368-1.184-3.072c-0.789-0.725-1.973-1.088-3.552-1.088h-5.536v8.288h5.536zM25.193 24.32c-1.045 0-2.016-0.213-2.912-0.64s-1.611-1.003-2.144-1.728c-0.512-0.747-0.768-1.568-0.768-2.464 0-1.408 0.576-2.56 1.728-3.456 1.173-0.917 2.752-1.515 4.736-1.792l4.768-0.672v-0.928c0-2.176-1.248-3.264-3.744-3.264-0.939 0-1.707 0.203-2.304 0.608-0.597 0.384-1.045 0.843-1.344 1.376-0.064 0.192-0.149 0.331-0.256 0.416-0.085 0.085-0.213 0.128-0.384 0.128h-1.376c-0.192 0-0.363-0.064-0.512-0.192-0.128-0.149-0.192-0.32-0.192-0.512 0.021-0.512 0.256-1.088 0.704-1.728 0.469-0.661 1.184-1.227 2.144-1.696 0.96-0.491 2.144-0.736 3.552-0.736 2.389 0 4.107 0.565 5.152 1.696 1.045 1.109 1.568 2.496 1.568 4.16v10.368c0 0.213-0.075 0.395-0.224 0.544-0.128 0.128-0.299 0.192-0.512 0.192h-1.472c-0.213 0-0.395-0.064-0.544-0.192-0.128-0.149-0.192-0.331-0.192-0.544v-1.376c-0.469 0.683-1.152 1.259-2.048 1.728s-2.037 0.704-3.424 0.704zM25.865 21.92c1.387 0 2.517-0.448 3.392-1.344 0.896-0.917 1.344-2.229 1.344-3.936v-0.896l-3.712 0.544c-1.515 0.213-2.656 0.576-3.424 1.088-0.768 0.491-1.152 1.12-1.152 1.888 0 0.853 0.352 1.515 1.056 1.984 0.704 0.448 1.536 0.672 2.496 0.672zM44.321 24.32c-1.557 0-2.848-0.245-3.872-0.736-1.003-0.491-1.739-1.088-2.208-1.792-0.448-0.704-0.683-1.397-0.704-2.080v-0.064c0-0.171 0.064-0.309 0.192-0.416s0.277-0.16 0.448-0.16h1.504c0.384 0 0.64 0.203 0.768 0.608 0.235 0.811 0.693 1.387 1.376 1.728 0.704 0.32 1.621 0.48 2.752 0.48 1.088 0 1.984-0.224 2.688-0.672s1.056-1.109 1.056-1.984c0-0.896-0.256-1.557-0.768-1.984-0.491-0.448-1.259-0.672-2.304-0.672h-1.76c-0.192 0-0.352-0.064-0.48-0.192s-0.192-0.299-0.192-0.512v-0.864c0-0.213 0.064-0.384 0.192-0.512s0.288-0.192 0.48-0.192h1.568c1.813 0 2.72-0.715 2.72-2.144 0-0.768-0.277-1.408-0.832-1.92-0.533-0.512-1.408-0.768-2.624-0.768-1.173 0-2.027 0.203-2.56 0.608-0.512 0.384-0.885 1.003-1.12 1.856-0.085 0.213-0.192 0.373-0.32 0.48-0.107 0.085-0.267 0.128-0.48 0.128h-1.44c-0.192 0-0.352-0.053-0.48-0.16-0.128-0.128-0.192-0.277-0.192-0.448 0.021-0.875 0.277-1.685 0.768-2.432s1.227-1.344 2.208-1.792c0.981-0.448 2.187-0.672 3.616-0.672 1.493 0 2.72 0.235 3.68 0.704s1.653 1.056 2.080 1.76c0.427 0.704 0.64 1.44 0.64 2.208 0 0.875-0.149 1.589-0.448 2.144-0.277 0.533-0.789 0.981-1.536 1.344 0.917 0.341 1.568 0.875 1.952 1.6 0.405 0.725 0.608 1.611 0.608 2.656 0 1.557-0.64 2.763-1.92 3.616-1.28 0.832-2.965 1.248-5.056 1.248zM55.992 30.080c-0.213 0-0.395-0.075-0.544-0.224-0.128-0.128-0.192-0.299-0.192-0.512v-21.248c0-0.213 0.064-0.384 0.192-0.512 0.149-0.149 0.331-0.224 0.544-0.224h1.472c0.213 0 0.384 0.075 0.512 0.224 0.149 0.128 0.224 0.299 0.224 0.512v1.408c1.195-1.643 2.944-2.464 5.248-2.464 2.24 0 3.915 0.704 5.024 2.112 1.131 1.408 1.739 3.221 1.824 5.44 0.021 0.235 0.032 0.597 0.032 1.088s-0.011 0.853-0.032 1.088c-0.085 2.197-0.693 4.011-1.824 5.44-1.131 1.408-2.805 2.112-5.024 2.112s-3.947-0.8-5.184-2.4v7.424c0 0.213-0.064 0.384-0.192 0.512-0.128 0.149-0.299 0.224-0.512 0.224h-1.568zM62.776 21.728c1.515 0 2.613-0.469 3.296-1.408 0.704-0.939 1.088-2.176 1.152-3.712 0.021-0.213 0.032-0.523 0.032-0.928 0-4.032-1.493-6.048-4.48-6.048-1.472 0-2.581 0.491-3.328 1.472-0.725 0.96-1.12 2.112-1.184 3.456l-0.032 1.216 0.032 1.248c0.043 1.259 0.448 2.357 1.216 3.296s1.867 1.408 3.296 1.408zM79.246 24.32c-1.045 0-2.016-0.213-2.912-0.64s-1.611-1.003-2.144-1.728c-0.512-0.747-0.768-1.568-0.768-2.464 0-1.408 0.576-2.56 1.728-3.456 1.173-0.917 2.752-1.515 4.736-1.792l4.768-0.672v-0.928c0-2.176-1.248-3.264-3.744-3.264-0.939 0-1.707 0.203-2.304 0.608-0.597 0.384-1.045 0.843-1.344 1.376-0.064 0.192-0.149 0.331-0.256 0.416-0.085 0.085-0.213 0.128-0.384 0.128h-1.376c-0.192 0-0.363-0.064-0.512-0.192-0.128-0.149-0.192-0.32-0.192-0.512 0.021-0.512 0.256-1.088 0.704-1.728 0.469-0.661 1.184-1.227 2.144-1.696 0.96-0.491 2.144-0.736 3.552-0.736 2.389 0 4.107 0.565 5.152 1.696 1.045 1.109 1.568 2.496 1.568 4.16v10.368c0 0.213-0.075 0.395-0.224 0.544-0.128 0.128-0.299 0.192-0.512 0.192h-1.472c-0.213 0-0.395-0.064-0.544-0.192-0.128-0.149-0.192-0.331-0.192-0.544v-1.376c-0.469 0.683-1.152 1.259-2.048 1.728s-2.037 0.704-3.424 0.704zM79.918 21.92c1.387 0 2.517-0.448 3.392-1.344 0.896-0.917 1.344-2.229 1.344-3.936v-0.896l-3.712 0.544c-1.515 0.213-2.656 0.576-3.424 1.088-0.768 0.491-1.152 1.12-1.152 1.888 0 0.853 0.352 1.515 1.056 1.984 0.704 0.448 1.536 0.672 2.496 0.672zM107.143 15.296c0.021 0.213 0.032 0.555 0.032 1.024 0 0.405-0.011 0.693-0.032 0.864-0.085 2.155-0.779 3.883-2.080 5.184-1.28 1.301-3.093 1.952-5.44 1.952-2.411 0-4.245-0.683-5.504-2.048s-1.931-3.243-2.016-5.632l-0.032-1.92 0.032-1.92c0.021-3.051 0.427-5.333 1.216-6.848 0.811-1.536 1.952-2.635 3.424-3.296 1.493-0.683 3.904-1.461 7.232-2.336l0.768-0.192 0.16-0.032c0.171 0 0.32 0.064 0.448 0.192 0.149 0.107 0.235 0.235 0.256 0.384l0.256 1.312 0.032 0.192c0 0.149-0.053 0.277-0.16 0.384-0.085 0.107-0.213 0.181-0.384 0.224l-1.6 0.384c-2.453 0.597-4.213 1.109-5.28 1.536s-1.899 1.099-2.496 2.016c-0.576 0.896-0.896 2.24-0.96 4.032 0.512-0.768 1.237-1.387 2.176-1.856 0.939-0.491 1.931-0.736 2.976-0.736 2.155 0 3.829 0.661 5.024 1.984 1.216 1.301 1.867 3.019 1.952 5.152zM104.071 17.056c0.021-0.149 0.032-0.395 0.032-0.736 0-0.384-0.011-0.672-0.032-0.864-0.043-1.557-0.448-2.763-1.216-3.616-0.747-0.875-1.728-1.312-2.944-1.312-1.365 0-2.485 0.437-3.36 1.312-0.853 0.853-1.312 2.059-1.376 3.616l-0.032 0.864 0.032 0.736c0.064 1.579 0.491 2.795 1.28 3.648 0.789 0.832 1.845 1.248 3.168 1.248 1.344 0 2.411-0.416 3.2-1.248 0.789-0.853 1.205-2.069 1.248-3.648zM118.312 24.32c-2.347 0-4.171-0.661-5.472-1.984-1.28-1.323-1.963-3.083-2.048-5.28l-0.032-1.376 0.032-1.376c0.085-2.176 0.779-3.925 2.080-5.248 1.301-1.344 3.115-2.016 5.44-2.016s4.139 0.672 5.44 2.016c1.301 1.323 1.995 3.072 2.080 5.248 0.021 0.235 0.032 0.693 0.032 1.376s-0.011 1.141-0.032 1.376c-0.085 2.197-0.779 3.957-2.080 5.28-1.28 1.323-3.093 1.984-5.44 1.984zM118.312 21.856c1.344 0 2.4-0.427 3.168-1.28 0.789-0.853 1.216-2.080 1.28-3.68 0.021-0.213 0.032-0.619 0.032-1.216s-0.011-1.003-0.032-1.216c-0.064-1.6-0.491-2.827-1.28-3.68-0.768-0.853-1.824-1.28-3.168-1.28s-2.411 0.427-3.2 1.28c-0.789 0.853-1.205 2.080-1.248 3.68l-0.032 1.216 0.032 1.216c0.043 1.6 0.459 2.827 1.248 3.68s1.856 1.28 3.2 1.28zM135.279 24c-0.213 0-0.395-0.064-0.544-0.192-0.128-0.149-0.192-0.331-0.192-0.544v-13.344h-5.568c-0.213 0-0.395-0.064-0.544-0.192-0.128-0.149-0.192-0.331-0.192-0.544v-1.088c0-0.213 0.064-0.384 0.192-0.512 0.149-0.149 0.331-0.224 0.544-0.224h14.080c0.213 0 0.384 0.075 0.512 0.224 0.149 0.128 0.224 0.299 0.224 0.512v1.088c0 0.213-0.075 0.395-0.224 0.544-0.128 0.128-0.299 0.192-0.512 0.192h-5.568v13.344c0 0.213-0.064 0.395-0.192 0.544-0.128 0.128-0.299 0.192-0.512 0.192h-1.504zM151.526 24.32c-1.045 0-2.016-0.213-2.912-0.64s-1.611-1.003-2.144-1.728c-0.512-0.747-0.768-1.568-0.768-2.464 0-1.408 0.576-2.56 1.728-3.456 1.173-0.917 2.752-1.515 4.736-1.792l4.768-0.672v-0.928c0-2.176-1.248-3.264-3.744-3.264-0.939 0-1.707 0.203-2.304 0.608-0.597 0.384-1.045 0.843-1.344 1.376-0.064 0.192-0.149 0.331-0.256 0.416-0.085 0.085-0.213 0.128-0.384 0.128h-1.376c-0.192 0-0.363-0.064-0.512-0.192-0.128-0.149-0.192-0.32-0.192-0.512 0.021-0.512 0.256-1.088 0.704-1.728 0.469-0.661 1.184-1.227 2.144-1.696 0.96-0.491 2.144-0.736 3.552-0.736 2.389 0 4.107 0.565 5.152 1.696 1.045 1.109 1.568 2.496 1.568 4.16v10.368c0 0.213-0.075 0.395-0.224 0.544-0.128 0.128-0.299 0.192-0.512 0.192h-1.472c-0.213 0-0.395-0.064-0.544-0.192-0.128-0.149-0.192-0.331-0.192-0.544v-1.376c-0.469 0.683-1.152 1.259-2.048 1.728s-2.037 0.704-3.424 0.704zM152.198 21.92c1.387 0 2.517-0.448 3.392-1.344 0.896-0.917 1.344-2.229 1.344-3.936v-0.896l-3.712 0.544c-1.515 0.213-2.656 0.576-3.424 1.088-0.768 0.491-1.152 1.12-1.152 1.888 0 0.853 0.352 1.515 1.056 1.984 0.704 0.448 1.536 0.672 2.496 0.672zM165.599 24c-0.213 0-0.395-0.064-0.544-0.192-0.128-0.149-0.192-0.331-0.192-0.544v-15.168c0-0.213 0.064-0.384 0.192-0.512 0.149-0.149 0.331-0.224 0.544-0.224h1.536c0.213 0 0.384 0.075 0.512 0.224 0.149 0.128 0.224 0.299 0.224 0.512v6.144h8.704v-6.144c0-0.213 0.064-0.384 0.192-0.512 0.149-0.149 0.331-0.224 0.544-0.224h1.504c0.213 0 0.384 0.075 0.512 0.224 0.149 0.128 0.224 0.299 0.224 0.512v15.168c0 0.213-0.075 0.395-0.224 0.544-0.128 0.128-0.299 0.192-0.512 0.192h-1.504c-0.213 0-0.395-0.064-0.544-0.192-0.128-0.149-0.192-0.331-0.192-0.544v-6.464h-8.704v6.464c0 0.213-0.075 0.395-0.224 0.544-0.128 0.128-0.299 0.192-0.512 0.192h-1.536zM191.499 24.32c-2.347 0-4.171-0.661-5.472-1.984-1.28-1.323-1.963-3.083-2.048-5.28l-0.032-1.376 0.032-1.376c0.085-2.176 0.779-3.925 2.080-5.248 1.301-1.344 3.115-2.016 5.44-2.016s4.139 0.672 5.44 2.016c1.301 1.323 1.995 3.072 2.080 5.248 0.021 0.235 0.032 0.693 0.032 1.376s-0.011 1.141-0.032 1.376c-0.085 2.197-0.779 3.957-2.080 5.28-1.28 1.323-3.093 1.984-5.44 1.984zM191.499 21.856c1.344 0 2.4-0.427 3.168-1.28 0.789-0.853 1.216-2.080 1.28-3.68 0.021-0.213 0.032-0.619 0.032-1.216s-0.011-1.003-0.032-1.216c-0.064-1.6-0.491-2.827-1.28-3.68-0.768-0.853-1.824-1.28-3.168-1.28s-2.411 0.427-3.2 1.28c-0.789 0.853-1.205 2.080-1.248 3.68l-0.032 1.216 0.032 1.216c0.043 1.6 0.459 2.827 1.248 3.68s1.856 1.28 3.2 1.28zM212.277 24c-0.213 0-0.395-0.064-0.544-0.192-0.128-0.149-0.192-0.331-0.192-0.544v-15.168c0-0.213 0.064-0.384 0.192-0.512 0.149-0.149 0.331-0.224 0.544-0.224h6.656c1.963 0 3.456 0.405 4.48 1.216 1.045 0.789 1.568 1.877 1.568 3.264 0 0.917-0.171 1.632-0.512 2.144-0.341 0.491-0.864 0.917-1.568 1.28 0.768 0.32 1.365 0.853 1.792 1.6 0.448 0.747 0.672 1.547 0.672 2.4 0 1.536-0.544 2.709-1.632 3.52-1.067 0.811-2.581 1.216-4.544 1.216h-6.912zM218.741 14.432c1.045 0 1.867-0.224 2.464-0.672s0.896-1.077 0.896-1.888c0-0.789-0.288-1.344-0.864-1.664-0.576-0.341-1.408-0.512-2.496-0.512h-4.256v4.736h4.256zM218.933 21.664c1.067 0 1.899-0.203 2.496-0.608 0.619-0.405 0.928-1.003 0.928-1.792 0-0.853-0.277-1.472-0.832-1.856-0.555-0.405-1.419-0.608-2.592-0.608h-4.448v4.864h4.448zM238.635 24c-0.213 0-0.405-0.075-0.576-0.224-0.149-0.171-0.224-0.363-0.224-0.576v-20.8c0-0.235 0.075-0.427 0.224-0.576 0.171-0.149 0.363-0.224 0.576-0.224h9.76c2.688 0 4.683 0.555 5.984 1.664 1.323 1.088 1.984 2.645 1.984 4.672 0 1.067-0.277 1.973-0.832 2.72-0.533 0.725-1.141 1.259-1.824 1.6 0.875 0.405 1.611 1.056 2.208 1.952s0.896 1.899 0.896 3.008c0 2.133-0.704 3.797-2.112 4.992s-3.413 1.792-6.016 1.792h-10.048zM247.755 10.496c0.853 0 1.504-0.213 1.952-0.64 0.448-0.448 0.672-1.035 0.672-1.76 0-0.704-0.224-1.269-0.672-1.696s-1.099-0.64-1.952-0.64h-4.16v4.736h4.16zM248.043 19.84c0.875 0 1.557-0.256 2.048-0.768s0.736-1.131 0.736-1.856c0-0.768-0.245-1.397-0.736-1.888-0.491-0.512-1.173-0.768-2.048-0.768h-4.448v5.28h4.448zM261.486 24c-0.213 0-0.405-0.075-0.576-0.224-0.149-0.171-0.224-0.363-0.224-0.576v-20.8c0-0.235 0.075-0.427 0.224-0.576 0.171-0.149 0.363-0.224 0.576-0.224h8.703c2.795 0 4.971 0.64 6.528 1.92 1.579 1.259 2.368 3.051 2.368 5.376 0 1.493-0.352 2.763-1.056 3.808s-1.675 1.845-2.912 2.4l4.384 7.872c0.064 0.128 0.096 0.245 0.096 0.352 0 0.171-0.075 0.331-0.224 0.48-0.128 0.128-0.277 0.192-0.448 0.192h-4.256c-0.619 0-1.056-0.288-1.312-0.864l-3.648-7.040h-3.263v7.104c0 0.235-0.085 0.427-0.256 0.576-0.149 0.149-0.341 0.224-0.576 0.224h-4.128zM270.125 11.552c0.981 0 1.728-0.235 2.24-0.704 0.512-0.491 0.768-1.163 0.768-2.016s-0.256-1.525-0.768-2.016c-0.491-0.512-1.237-0.768-2.24-0.768h-3.679v5.504h3.679zM281.851 24c-0.171 0-0.331-0.064-0.48-0.192-0.128-0.149-0.192-0.309-0.192-0.48 0-0.128 0.011-0.224 0.032-0.288l7.52-20.544c0.064-0.256 0.203-0.469 0.416-0.64s0.491-0.256 0.832-0.256h4.736c0.341 0 0.619 0.085 0.832 0.256s0.352 0.384 0.416 0.64l7.488 20.544 0.064 0.288c0 0.171-0.075 0.331-0.224 0.48-0.128 0.128-0.288 0.192-0.48 0.192h-3.936c-0.512 0-0.853-0.224-1.024-0.672l-1.248-3.264h-8.544l-1.216 3.264c-0.171 0.448-0.523 0.672-1.056 0.672h-3.936zM295.323 15.456l-2.976-8.448-2.976 8.448h5.952zM307.157 24c-0.213 0-0.405-0.075-0.576-0.224-0.149-0.171-0.224-0.363-0.224-0.576v-20.8c0-0.235 0.075-0.427 0.224-0.576 0.171-0.149 0.363-0.224 0.576-0.224h3.392c0.533 0 0.896 0.203 1.088 0.608l7.808 12.288v-12.096c0-0.235 0.075-0.427 0.224-0.576 0.171-0.149 0.363-0.224 0.576-0.224h3.84c0.235 0 0.427 0.075 0.576 0.224s0.224 0.341 0.224 0.576v20.768c0 0.235-0.075 0.437-0.224 0.608-0.149 0.149-0.341 0.224-0.576 0.224h-3.424c-0.469 0-0.821-0.203-1.056-0.608l-7.808-11.84v11.648c0 0.213-0.075 0.405-0.224 0.576-0.149 0.149-0.341 0.224-0.576 0.224h-3.84zM330.477 24c-0.213 0-0.405-0.075-0.576-0.224-0.149-0.171-0.224-0.363-0.224-0.576v-20.8c0-0.235 0.075-0.427 0.224-0.576 0.171-0.149 0.363-0.224 0.576-0.224h8.32c3.136 0 5.568 0.747 7.296 2.24s2.635 3.659 2.72 6.496c0.021 0.619 0.032 1.44 0.032 2.464s-0.011 1.835-0.032 2.432c-0.107 2.965-0.992 5.173-2.656 6.624-1.643 1.429-4.043 2.144-7.2 2.144h-8.48zM338.797 19.392c1.408 0 2.443-0.331 3.104-0.992 0.661-0.683 1.013-1.76 1.056-3.232 0.043-0.619 0.064-1.419 0.064-2.4s-0.021-1.771-0.064-2.368c-0.043-1.429-0.427-2.485-1.152-3.168-0.704-0.683-1.76-1.024-3.168-1.024h-3.2v13.184h3.36zM353.704 24c-0.213 0-0.405-0.075-0.576-0.224-0.149-0.171-0.224-0.363-0.224-0.576v-20.8c0-0.235 0.075-0.427 0.224-0.576 0.171-0.149 0.363-0.224 0.576-0.224h14.944c0.235 0 0.427 0.075 0.576 0.224s0.224 0.341 0.224 0.576v3.008c0 0.213-0.075 0.405-0.224 0.576-0.149 0.149-0.341 0.224-0.576 0.224h-10.208v4.32h9.504c0.235 0 0.427 0.085 0.576 0.256 0.149 0.149 0.224 0.341 0.224 0.576v2.784c0 0.213-0.075 0.405-0.224 0.576-0.149 0.149-0.341 0.224-0.576 0.224h-9.504v4.448h10.464c0.235 0 0.427 0.075 0.576 0.224s0.224 0.341 0.224 0.576v3.008c0 0.213-0.075 0.405-0.224 0.576-0.149 0.149-0.341 0.224-0.576 0.224h-15.2zM374.461 24c-0.213 0-0.405-0.075-0.576-0.224-0.149-0.171-0.224-0.363-0.224-0.576v-20.8c0-0.235 0.075-0.427 0.224-0.576 0.171-0.149 0.363-0.224 0.576-0.224h8.704c2.795 0 4.971 0.64 6.528 1.92 1.579 1.259 2.368 3.051 2.368 5.376 0 1.493-0.352 2.763-1.056 3.808s-1.675 1.845-2.912 2.4l4.384 7.872c0.064 0.128 0.096 0.245 0.096 0.352 0 0.171-0.075 0.331-0.224 0.48-0.128 0.128-0.277 0.192-0.448 0.192h-4.256c-0.619 0-1.056-0.288-1.312-0.864l-3.648-7.040h-3.264v7.104c0 0.235-0.085 0.427-0.256 0.576-0.149 0.149-0.341 0.224-0.576 0.224h-4.128zM383.101 11.552c0.981 0 1.728-0.235 2.24-0.704 0.512-0.491 0.768-1.163 0.768-2.016s-0.256-1.525-0.768-2.016c-0.491-0.512-1.237-0.768-2.24-0.768h-3.68v5.504h3.68z"></path>
</symbol>
<symbol id="icon-cart" viewBox="0 0 32 32">
<path fill="none" stroke="#28292f" style="stroke: var(--color3, #28292f)" stroke-linejoin="round" stroke-linecap="round" stroke-miterlimit="4" stroke-width="1.28" d="M0.64 1.28c1.92-0.213 6.528 1.426 7.040 9.618 0.64 10.24 5.12 13.44 8.32 13.44 2.56 0 9.173 0 12.16 0"></path>
<path fill="none" stroke="#28292f" style="stroke: var(--color3, #28292f)" stroke-linejoin="miter" stroke-linecap="butt" stroke-miterlimit="4" stroke-width="1.28" d="M6.4 5.777l23.68 0.622-1.040 8.837c-0.14 1.193-1.092 2.129-2.288 2.248l-17.153 1.715"></path>
<path d="M11.52 30.080c0 1.060-0.86 1.92-1.92 1.92s-1.92-0.86-1.92-1.92c0-1.060 0.86-1.92 1.92-1.92s1.92 0.86 1.92 1.92z"></path>
<path d="M28.394 30.080c0 1.060-0.86 1.92-1.92 1.92s-1.92-0.86-1.92-1.92 0.86-1.92 1.92-1.92c1.060 0 1.92 0.86 1.92 1.92z"></path>
</symbol>
<symbol id="icon-decor" viewBox="0 0 32 32">
<path d="M27.074 12.924c-0.155 0.002-0.309 0.018-0.461 0.048v-5.354c0.024-0.839-0.121-1.674-0.429-2.454s-0.77-1.491-1.359-2.088c-0.589-0.597-1.294-1.068-2.070-1.385s-1.609-0.473-2.448-0.459h-8.613c-0.838-0.014-1.671 0.142-2.447 0.459s-1.481 0.788-2.070 1.385c-0.589 0.597-1.052 1.307-1.359 2.087s-0.453 1.615-0.429 2.454v5.354c-0.152-0.028-0.307-0.044-0.461-0.046-0.338 0.001-0.671 0.071-0.981 0.206s-0.588 0.332-0.819 0.579c-0.231 0.247-0.408 0.538-0.522 0.856s-0.161 0.656-0.139 0.993v3.308c0 2.444 1.528 4.607 3.845 5.046v6.396c0 1.527 0.968 1.692 1.384 1.692 0.619 0 1.129-0.468 1.372-1.279l1.726-6.721h10.414l1.733 6.748c0.057 0.331 0.221 0.633 0.469 0.859s0.562 0.365 0.896 0.392c0.416 0 1.384-0.165 1.384-1.692v-6.394c2.317-0.441 3.845-2.604 3.845-5.046v-3.31c0.018-0.336-0.032-0.673-0.147-0.989s-0.293-0.606-0.523-0.852c-0.23-0.246-0.507-0.443-0.815-0.579s-0.64-0.209-0.976-0.214zM6.312 7.616c-0.021-0.716 0.103-1.43 0.365-2.097s0.656-1.274 1.16-1.785 1.104-0.914 1.768-1.185c0.663-0.272 1.374-0.406 2.091-0.395h8.613c0.716-0.011 1.428 0.123 2.091 0.395s1.264 0.675 1.768 1.185 0.898 1.118 1.16 1.785c0.262 0.667 0.386 1.381 0.365 2.097v5.717c-0.374 0.239-0.683 0.567-0.898 0.956s-0.329 0.825-0.332 1.269v1.654c0.017 0.21-0.009 0.421-0.077 0.62s-0.176 0.382-0.318 0.537c-0.142 0.155-0.315 0.28-0.507 0.365s-0.4 0.13-0.611 0.131h-13.892c-0.21-0.001-0.418-0.046-0.611-0.131s-0.365-0.21-0.507-0.365c-0.142-0.155-0.25-0.338-0.319-0.537s-0.094-0.41-0.077-0.62v-1.654c0-0.446-0.113-0.885-0.328-1.276s-0.526-0.721-0.902-0.96v-5.706zM8.176 30.483c-0.030 0.099-0.193 0.594-0.48 0.594-0.185 0-0.461 0-0.461-0.769v-6.308h2.611l-1.669 6.483zM24.767 30.309c0 0.769-0.277 0.769-0.461 0.769-0.288 0-0.451-0.495-0.474-0.567l-1.676-6.51h2.611v6.308zM28.612 18.866c0 2.042-1.331 4.212-3.798 4.212h-17.626c-2.467 0-3.798-2.17-3.798-4.212v-3.308c-0.019-0.215 0.006-0.432 0.074-0.637s0.178-0.394 0.322-0.554c0.144-0.161 0.32-0.29 0.517-0.379s0.409-0.137 0.625-0.141c0.224-0.001 0.446 0.043 0.653 0.129s0.395 0.212 0.552 0.372c0.157 0.159 0.282 0.348 0.365 0.556s0.125 0.43 0.122 0.654v1.654c-0.017 0.331 0.034 0.662 0.149 0.973s0.291 0.595 0.519 0.836c0.228 0.241 0.502 0.433 0.805 0.565s0.631 0.201 0.962 0.203h13.892c0.331-0.002 0.659-0.071 0.962-0.203s0.578-0.324 0.805-0.565c0.228-0.241 0.404-0.525 0.519-0.836s0.165-0.642 0.149-0.973v-1.654c-0.001-0.451 0.176-0.884 0.493-1.205s0.748-0.503 1.199-0.507c0.215 0.006 0.427 0.055 0.622 0.145s0.37 0.219 0.514 0.38c0.144 0.16 0.254 0.348 0.323 0.552s0.096 0.42 0.078 0.635v3.308z"></path>
</symbol>
<symbol id="icon-facebook" viewBox="0 0 16 32">
<path d="M15.399 0.006l-3.839-0.006c-4.311 0-7.099 3.091-7.099 7.875v3.631h-3.858c-0.332 0-0.602 0.292-0.602 0.653v5.261c0 0.359 0.27 0.651 0.602 0.651h3.858v13.278c0 0.359 0.273 0.651 0.606 0.651h5.033c0.334 0 0.604-0.292 0.604-0.651v-13.278h4.511c0.334 0 0.604-0.292 0.604-0.651l0.003-5.261c0-0.172-0.064-0.338-0.177-0.461-0.113-0.122-0.267-0.191-0.428-0.191h-4.512v-3.078c0-1.479 0.326-2.231 2.108-2.231l2.584-0.001c0.334 0 0.604-0.292 0.604-0.651v-4.885c0-0.362-0.27-0.653-0.601-0.654z"></path>
</symbol>
<symbol id="icon-fav" viewBox="0 0 32 32">
<path fill="none" stroke="#28292f" style="stroke: var(--color3, #28292f)" stroke-linejoin="round" stroke-linecap="round" stroke-miterlimit="4" stroke-width="1.28" d="M16 28.509l-12.948-13.682c-1.264-1.455-2.205-3.009-2.382-4.604-0.172-1.55 0.366-3.263 2.343-5.096l0 0 0.006-0.005c1.25-1.188 2.472-1.733 3.624-1.879 1.159-0.147 2.307 0.102 3.412 0.599 2.232 1.005 4.176 2.967 5.474 4.383 0.121 0.132 0.292 0.208 0.472 0.208s0.351-0.075 0.472-0.208c1.298-1.417 3.241-3.379 5.474-4.383 1.105-0.497 2.252-0.747 3.412-0.599 1.152 0.146 2.374 0.691 3.624 1.879v0l0.006 0.005c1.976 1.833 2.514 3.546 2.343 5.096-0.177 1.595-1.118 3.15-2.382 4.604l-12.948 13.682z"></path>
</symbol>
<symbol id="icon-homewear" viewBox="0 0 32 32">
<path d="M25.704 13.748v-0.010c-0.18-6.041-0.323-10.815-4.695-12.294l-1.676-0.6-0.012-0.037c-0.216-0.595-1.833-0.808-3.271-0.808h-0.099c-1.441 0-3.057 0.212-3.27 0.808l-0.013 0.036-0.036 0.014-1.636 0.588c-4.378 1.48-4.52 6.257-4.699 12.305-0.033 1.109-0.071 2.368-0.14 3.64-0.007 0.092 0.019 0.183 0.074 0.257s0.133 0.125 0.222 0.145c0.582 0.116 1.173 0.18 1.766 0.192 0.423 0.029 0.845-0.054 1.226-0.242 0.056-0.038 0.101-0.089 0.131-0.15s0.044-0.128 0.041-0.196c-0.028-0.853-0.124-5.205 0.727-7.029l0.087-0.186 0.063 0.196c0.154 0.909 0.249 1.827 0.285 2.749 0 0.301-0.453 2.010-0.978 5.726l-0.014 0.1c-0.686 4.857-1.462 10.35-1.617 12.060-0.008 0.082 0.009 0.164 0.049 0.236s0.102 0.128 0.176 0.163c2.48 0.438 4.995 0.633 7.512 0.582h0.195c2.518 0.053 5.036-0.143 7.516-0.584 0.073-0.035 0.133-0.092 0.173-0.163s0.056-0.153 0.047-0.234c-0.157-1.718-0.933-7.212-1.617-12.060l-0.012-0.081c-0.526-3.726-0.98-5.446-0.98-5.745 0.036-0.922 0.131-1.84 0.285-2.749l0.063-0.196 0.087 0.187c0.851 1.824 0.755 6.176 0.726 7.029-0.003 0.072 0.014 0.142 0.048 0.205s0.084 0.115 0.144 0.152c0.373 0.177 0.784 0.256 1.196 0.23 0.596-0.011 1.189-0.075 1.774-0.192 0.090-0.019 0.169-0.071 0.224-0.145s0.081-0.166 0.074-0.259c-0.071-1.271-0.108-2.53-0.141-3.639zM13.621 1.046c0.748-0.208 1.523-0.3 2.299-0.273h0.188c0.767-0.024 1.532 0.068 2.272 0.273l0.128 0.035-0.089 0.099c-0.975 1.147-1.758 2.448-2.318 3.852l-0.073 0.172-0.075-0.171c-0.573-1.408-1.373-2.709-2.367-3.852l-0.092-0.099 0.129-0.035zM10.142 9.43c-0.031 0.029-0.064 0.066-0.1 0.109l-0.029 0.033c-1.157 1.269-1.156 6.057-1.128 7.498v0.073l-0.072 0.009c-0.618 0.080-1.244 0.062-1.857-0.051l-0.070-0.013 0.004-0.072c0.054-1.128 0.089-2.246 0.119-3.232 0.102-3.48 0.191-6.47 1.054-8.575l0.064-0.157 1.384 2.529c0.306 0.555 0.526 1.154 0.653 1.776l0.008 0.044-0.030 0.028zM10.133 7.189l-1.597-2.917 0.026-0.041c0.615-0.981 1.556-1.707 2.652-2.049l1.719-0.617 0.037 0.036c1.185 1.285 2.102 2.799 2.695 4.451l0.012 0.029-0.011 0.030c-0.761 2.149-1.347 4.357-1.752 6.603h-2.474c-0.131-1.105-0.568-4.17-1.309-5.525zM12.124 31.099l-0.083-0.006c-1.026-0.049-2.048-0.154-3.062-0.315l-0.072-0.015 0.008-0.074c0.1-0.919 0.597-4.475 1.122-8.232l0.030-0.208c0.597-4.267 1.209-7.558 1.377-8.715h2.322c-0.947 5.781-1.494 11.623-1.637 17.481l-0.003 0.084zM21.934 22.249l0.033 0.235c0.524 3.748 1.020 7.288 1.118 8.205l0.008 0.075-0.073 0.015c-2.294 0.319-4.608 0.465-6.922 0.437h-0.196c-1.008 0-2.035-0.025-3.051-0.076l-0.080-0.004v-0.081c0.139-5.873 0.696-11.729 1.666-17.521h6.119c0.167 1.157 0.78 4.449 1.377 8.713l0.001 0.002zM20.556 12.715h-5.963c1.059-5.364 2.54-9.082 4.437-11.111l0.036-0.038 1.725 0.619c1.092 0.343 2.028 1.068 2.641 2.046l0.026 0.041-0.023 0.043-1.573 2.874c-0.738 1.355-1.176 4.417-1.307 5.526zM25.042 17.099c-0.612 0.114-1.238 0.131-1.856 0.051l-0.072-0.009v-0.073c0.028-1.438 0.030-6.228-1.128-7.498l-0.027-0.031c-0.032-0.038-0.066-0.075-0.101-0.109l-0.032-0.030 0.008-0.044c0.126-0.62 0.345-1.216 0.65-1.769l1.388-2.536 0.064 0.157c0.862 2.103 0.951 5.093 1.054 8.555v0.068c0.031 1.025 0.063 2.086 0.116 3.184l0.004 0.072-0.067 0.012z"></path>
</symbol>
<symbol id="icon-icon_mastercard" viewBox="0 0 55 32">
<path d="M33.164 16c0 8.837-7.424 16-16.582 16s-16.582-7.163-16.582-16c0-8.837 7.424-16 16.582-16s16.582 7.163 16.582 16z"></path>
<path d="M55.273 16c0 8.837-7.424 16-16.582 16s-16.582-7.163-16.582-16c0-8.837 7.424-16 16.582-16s16.582 7.163 16.582 16z"></path>
</symbol>
<symbol id="icon-icon-broderie-1" viewBox="0 0 32 32">
<path fill="#ff6869" style="fill: var(--color2, #ff6869)" d="M16 32c8.837 0 16-7.163 16-16s-7.163-16-16-16c-8.837 0-16 7.163-16 16s7.163 16 16 16z"></path>
<path fill="#fff" style="fill: var(--color1, #fff)" d="M20.219 12.959l-4.434-2.079h-3.27l6.758 3.168 0.946-1.089zM11.006 10.88h-0.291v1.397l7.178 3.364 0.945-1.088-7.832-3.674zM20.315 10.88h-3.022l3.022 1.417v-1.417zM24.702 11.197l-1.373 1.373c-0.060 0.060-0.141 0.094-0.226 0.094s-0.167-0.033-0.227-0.094c-0.060-0.060-0.094-0.141-0.094-0.226s0.033-0.167 0.093-0.227l1.373-1.373c0.060-0.058 0.141-0.091 0.225-0.090s0.164 0.034 0.224 0.094 0.093 0.14 0.094 0.223c0.001 0.084-0.032 0.165-0.090 0.225l0.001 0.001zM25.381 10.065c-0.239-0.238-0.562-0.373-0.899-0.374s-0.662 0.13-0.902 0.367l-5.084 5.864 1.436 0.675 5.467-4.737c0.233-0.242 0.362-0.565 0.359-0.901s-0.138-0.657-0.376-0.894h-0.001zM22.103 8.64h-13.176l1.6 1.6h9.975l1.601-1.6zM19.402 17.055l-8.687-4.072v1.536l9.6 4.499v-1.536l-0.913-0.429 0.001 0.002zM12.24 24.11c-0.121 0.114-0.281 0.176-0.447 0.174s-0.324-0.071-0.441-0.189c-0.024-0.030-0.045-0.061-0.064-0.095h-2.813v0.96h14.080v-0.96h-10.188l-0.128 0.11h0.001zM20.503 21.76h-5.551l-1.846 1.6h8.996l-1.599-1.6zM20.315 21.12v-1.396l-9.6-4.5v1.536l9.309 4.36h0.291zM8.475 8h14.080v-0.96h-14.080v0.96zM18.516 21.12l-1.834-0.86-0.992 0.86h2.826zM16.047 19.963l-0.749-0.351-3.247 3.748h0.076l3.92-3.397zM8.928 23.36h2.31c0.028-0.063 0.067-0.12 0.114-0.17l1.238-1.43h-2.063l-1.6 1.6zM10.715 18.997l3.034 1.427 0.948-1.094-3.982-1.866v1.533zM10.715 21.12h2.432l0.168-0.192-2.6-1.223v1.415z"></path>
</symbol>
<symbol id="icon-insta" viewBox="0 0 32 32">
<path d="M29 23.107c0 3.262-2.673 5.915-5.959 5.915h-14.259c-3.286 0-5.959-2.653-5.959-5.915v-14.155c0-3.262 2.673-5.915 5.959-5.915h14.259c3.286 0 5.959 2.653 5.959 5.915v14.155zM23.041 0.234h-14.259c-4.843 0-8.782 3.911-8.782 8.718v14.155c0 4.807 3.939 8.718 8.782 8.718h14.259c4.843 0 8.782-3.911 8.782-8.718v-14.155c0-4.807-3.939-8.718-8.782-8.718zM15.912 21.366c-2.964 0-5.377-2.393-5.377-5.337 0-2.942 2.412-5.337 5.377-5.337s5.377 2.395 5.377 5.337c0 2.944-2.413 5.337-5.377 5.337zM15.912 7.89c-4.522 0-8.2 3.652-8.2 8.139 0 4.489 3.678 8.141 8.2 8.141s8.201-3.652 8.201-8.141c0-4.488-3.679-8.139-8.2-8.139zM22.993 6.114c0.384-0.383 0.918-0.601 1.462-0.601 0.546 0 1.080 0.218 1.464 0.601 0.386 0.381 0.607 0.912 0.607 1.454 0 0.539-0.221 1.070-0.607 1.453-0.386 0.381-0.918 0.601-1.464 0.601-0.544 0-1.079-0.22-1.462-0.601-0.386-0.383-0.608-0.913-0.608-1.453 0-0.542 0.221-1.073 0.608-1.455z"></path>
</symbol>
<symbol id="icon-kid" viewBox="0 0 32 32">
<path d="M19.711 9.897h0.014c0.063-0 0.125-0.013 0.182-0.038s0.11-0.060 0.153-0.105c0.043-0.045 0.077-0.098 0.099-0.156s0.032-0.12 0.030-0.182v-0.925c0.002-0.060-0.008-0.121-0.029-0.178s-0.054-0.109-0.096-0.153c-0.065-0.069-0.15-0.118-0.243-0.138s-0.191-0.011-0.279 0.025c-0.088 0.037-0.163 0.099-0.214 0.179s-0.076 0.174-0.072 0.268v0.926c-0.003 0.122 0.043 0.241 0.128 0.33s0.202 0.141 0.326 0.144zM17.051 13.924c-0.057-0.024-0.119-0.037-0.182-0.037-0.092-0-0.181 0.026-0.258 0.076s-0.136 0.121-0.172 0.205c-0.036 0.087-0.098 0.162-0.177 0.214s-0.173 0.080-0.268 0.080c-0.062 0-0.123-0.012-0.18-0.036-0.059-0.023-0.113-0.058-0.159-0.103s-0.081-0.097-0.106-0.156c-0.036-0.084-0.095-0.155-0.172-0.205s-0.166-0.077-0.258-0.076c-0.062-0-0.124 0.012-0.182 0.037-0.114 0.048-0.204 0.138-0.251 0.252s-0.046 0.24 0.002 0.353c0.108 0.253 0.29 0.47 0.522 0.622s0.504 0.233 0.782 0.233c0.278 0 0.55-0.081 0.782-0.233s0.413-0.368 0.522-0.622c0.024-0.056 0.036-0.116 0.037-0.177s-0.011-0.121-0.034-0.177c-0.023-0.056-0.057-0.107-0.1-0.151s-0.094-0.078-0.151-0.101l0.004 0.001zM12.263 9.879c0.123 0 0.242-0.048 0.329-0.135s0.136-0.203 0.136-0.325v-0.923c0-0.122-0.049-0.24-0.137-0.326s-0.206-0.135-0.33-0.135-0.242 0.049-0.33 0.135c-0.087 0.087-0.137 0.204-0.137 0.326v0.923c0 0.122 0.050 0.24 0.138 0.326s0.206 0.135 0.33 0.134zM15.012 12.582c0.278 0.221 0.625 0.342 0.982 0.342s0.703-0.12 0.982-0.342c0.456-0.344 0.848-0.765 1.158-1.244 0.152-0.244 0.241-0.522 0.261-0.808s-0.031-0.573-0.147-0.835c-0.115-0.26-0.291-0.488-0.515-0.665s-0.487-0.298-0.768-0.352c-0.646-0.082-1.301-0.082-1.947 0-0.28 0.055-0.542 0.176-0.764 0.353s-0.398 0.405-0.512 0.663c-0.116 0.263-0.167 0.55-0.147 0.837s0.11 0.564 0.262 0.809c0.309 0.478 0.701 0.898 1.157 1.242zM14.596 10.063c0.052-0.118 0.131-0.223 0.231-0.305s0.218-0.14 0.345-0.17c0.544-0.066 1.094-0.066 1.638 0 0.128 0.029 0.248 0.087 0.349 0.17s0.182 0.188 0.234 0.307c0.055 0.123 0.080 0.258 0.072 0.392s-0.048 0.265-0.117 0.381c-0.256 0.394-0.58 0.74-0.957 1.022-0.112 0.090-0.253 0.139-0.397 0.139-0.152-0.001-0.3-0.055-0.416-0.153-0.365-0.275-0.679-0.61-0.928-0.991-0.073-0.118-0.116-0.252-0.126-0.39s0.015-0.277 0.071-0.403zM26.565 24.045c-0.191-0.197-0.401-0.375-0.629-0.529l-0.56-0.377 0.516-0.431c0.28-0.233 0.505-0.524 0.661-0.852s0.237-0.685 0.24-1.047c-0.004-1.508-1.253-2.338-2.258-3.007l-0.358-0.241c-0.264-0.176-0.531-0.354-0.8-0.529l-0.553-0.359 0.488-0.442c0.144-0.13 0.284-0.265 0.398-0.383 0.791-0.892 1.365-1.95 1.68-3.095s0.361-2.346 0.135-3.511c-0.109-0.7-0.309-1.382-0.596-2.031l-0.192-0.434 0.425-0.22c0.278-0.145 0.539-0.319 0.781-0.518 0.263-0.237 0.482-0.517 0.648-0.828 0.33-0.637 0.439-1.364 0.311-2.069-0.138-0.71-0.521-1.351-1.084-1.813s-1.271-0.714-2.002-0.716c-0.12 0-0.24 0.007-0.36 0.020-0.554 0.055-1.083 0.256-1.531 0.583s-0.8 0.766-1.018 1.273l-0.2 0.465-0.471-0.194c-0.57-0.236-1.16-0.42-1.764-0.55-0.788-0.165-1.591-0.249-2.396-0.25h-0.062l-0.115-0.004c-0.798 0.004-1.593 0.088-2.373 0.252-0.605 0.129-1.196 0.313-1.767 0.55l-0.471 0.194-0.2-0.465c-0.218-0.507-0.57-0.947-1.018-1.273s-0.977-0.528-1.531-0.583c-0.118-0.012-0.237-0.018-0.356-0.017-0.73 0.001-1.438 0.253-2.001 0.713s-0.947 1.1-1.086 1.81c-0.13 0.704-0.022 1.43 0.306 2.067 0.163 0.306 0.377 0.583 0.634 0.818 0.248 0.204 0.517 0.381 0.802 0.529l0.424 0.22-0.191 0.434c-0.288 0.654-0.49 1.343-0.599 2.048-0.223 1.159-0.176 2.354 0.136 3.492s0.882 2.192 1.667 3.081c0.131 0.135 0.27 0.27 0.414 0.4l0.488 0.442-0.553 0.359c-0.269 0.175-0.536 0.353-0.799 0.529l-0.361 0.242c-1.004 0.667-2.252 1.498-2.256 3.001 0.002 0.363 0.084 0.722 0.239 1.051s0.382 0.621 0.662 0.855l0.517 0.431-0.56 0.377c-0.225 0.152-0.433 0.326-0.622 0.521-0.427 0.459-0.746 1.005-0.936 1.599s-0.245 1.223-0.162 1.841c0.116 0.876 0.496 1.697 1.091 2.355s1.376 1.125 2.243 1.337c0.505 0.143 1.029 0.217 1.554 0.217 1.3-0.051 2.574-0.382 3.731-0.971l0.154-0.049h0.1c0.102 0 0.204 0.023 0.296 0.067 0.687 0.329 1.433 0.519 2.196 0.558l0.053 0.003 0.047 0.012c0 0 0.145-0.009 0.193-0.009 0.037 0 0.186 0.007 0.186 0.007l0.047-0.012h0.048c0.76-0.038 1.505-0.226 2.191-0.554 0.093-0.045 0.196-0.069 0.3-0.069l0.187 0.012 0.11 0.055c1.14 0.575 2.393 0.899 3.672 0.947h0.009c0.536-0 1.070-0.075 1.586-0.222 0.863-0.214 1.64-0.681 2.231-1.338s0.969-1.476 1.083-2.349c0.083-0.616 0.028-1.242-0.16-1.835s-0.506-1.137-0.93-1.595zM26.731 27.359c-0.090 0.688-0.388 1.333-0.853 1.851s-1.078 0.886-1.758 1.055l-0.032 0.009c-0.43 0.122-0.875 0.184-1.322 0.185-1.137-0.047-2.251-0.337-3.264-0.851l-0.11-0.056-0.172-0.087-0.379-0.024h-0.060c-0.244 0-0.486 0.055-0.705 0.161-0.574 0.274-1.198 0.432-1.835 0.465h-0.048l-0.085 0.005h-0.005l-0.096-0.003c-0.022 0-0.062 0-0.099 0.003l-0.087-0.005-0.058-0.004c-0.636-0.032-1.259-0.19-1.832-0.463-0.221-0.107-0.463-0.162-0.708-0.163h-0.249l-0.365 0.116-0.068 0.034c-1.031 0.524-2.164 0.822-3.322 0.873-0.434-0.002-0.866-0.063-1.283-0.181l-0.017-0.005-0.017-0.004c-0.684-0.168-1.3-0.536-1.77-1.056s-0.77-1.167-0.862-1.858c-0.065-0.481-0.024-0.97 0.122-1.433s0.393-0.889 0.723-1.248c0.144-0.148 0.303-0.281 0.474-0.396l0.56-0.377 1.013-0.685-1.453-1.215c-0.176-0.147-0.319-0.33-0.417-0.537s-0.15-0.432-0.153-0.66c0-0.941 0.765-1.521 1.847-2.24l0.359-0.241c0.26-0.174 0.523-0.35 0.788-0.522l1.557-1.010-1.376-1.244c-0.124-0.11-0.241-0.225-0.352-0.34-0.69-0.787-1.189-1.719-1.461-2.726s-0.309-2.061-0.108-3.084c0.097-0.627 0.276-1.239 0.532-1.821l0.192-0.434 0.347-0.788-1.194-0.619c-0.22-0.113-0.427-0.249-0.619-0.405-0.169-0.158-0.311-0.343-0.42-0.546-0.234-0.453-0.311-0.97-0.219-1.471 0.097-0.5 0.367-0.951 0.763-1.276s0.895-0.502 1.409-0.503c0.087 0 0.174 0.005 0.261 0.015 0.388 0.038 0.759 0.179 1.073 0.407s0.561 0.536 0.714 0.891l0.563 1.31 1.326-0.549c0.517-0.214 1.052-0.38 1.6-0.498 0.713-0.149 1.439-0.227 2.168-0.231l0.097 0.003h0.11c0.733 0.003 1.464 0.080 2.181 0.23 0.548 0.118 1.085 0.284 1.602 0.498l1.326 0.549 0.563-1.31c0.153-0.356 0.4-0.664 0.716-0.892s0.686-0.369 1.075-0.406c0.086-0.010 0.172-0.015 0.259-0.015 0.513 0 1.010 0.177 1.406 0.501s0.666 0.772 0.764 1.271c0.092 0.501 0.015 1.018-0.218 1.472-0.112 0.21-0.259 0.401-0.435 0.563-0.187 0.15-0.388 0.281-0.601 0.391l-1.197 0.618 0.54 1.224c0.258 0.585 0.437 1.2 0.534 1.831 0.198 1.025 0.157 2.080-0.118 3.087s-0.778 1.939-1.47 2.725c-0.098 0.102-0.217 0.215-0.339 0.326l-0.488 0.442-0.885 0.8 1.556 1.009c0.265 0.173 0.529 0.348 0.788 0.521l0.361 0.246c1.079 0.718 1.844 1.298 1.846 2.236-0.002 0.229-0.053 0.455-0.152 0.662s-0.241 0.39-0.418 0.538l-0.516 0.431-0.937 0.784 1.573 1.061c0.169 0.114 0.326 0.244 0.468 0.39 0.333 0.359 0.582 0.786 0.729 1.251s0.189 0.956 0.124 1.439h0.001zM10.647 24.010c-0.031-0.006-0.063-0.010-0.095-0.010-0.116 0.001-0.228 0.044-0.313 0.122s-0.139 0.184-0.149 0.298c-0.011 0.114 0.022 0.228 0.092 0.32s0.172 0.154 0.286 0.175c0.071 0.015 1.758 0.391 1.655 3.026-0.002 0.062 0.009 0.123 0.032 0.181s0.057 0.11 0.1 0.155c0.043 0.045 0.095 0.080 0.153 0.105s0.119 0.038 0.182 0.038h0.003c0.119-0.001 0.233-0.047 0.319-0.129s0.137-0.193 0.143-0.31c0.057-0.591-0.014-1.187-0.207-1.749s-0.504-1.078-0.912-1.512c-0.358-0.346-0.803-0.591-1.289-0.71zM21.666 24.060c-0.069-0.040-0.148-0.061-0.229-0.062-0.031-0-0.063 0.003-0.093 0.010l-0.103 0.028c-0.448 0.128-0.857 0.364-1.19 0.686-0.407 0.434-0.717 0.949-0.909 1.51s-0.262 1.156-0.206 1.745c0.004 0.119 0.055 0.232 0.142 0.314s0.203 0.129 0.323 0.128h0.019c0.061-0.002 0.121-0.017 0.177-0.042s0.106-0.061 0.147-0.106c0.042-0.045 0.074-0.097 0.095-0.154s0.031-0.117 0.028-0.178c-0.101-2.601 1.587-3.012 1.66-3.028 0.060-0.012 0.117-0.036 0.168-0.070s0.094-0.078 0.128-0.128 0.057-0.107 0.069-0.167c0.011-0.060 0.011-0.121-0.002-0.18-0.014-0.063-0.042-0.123-0.080-0.175s-0.087-0.097-0.143-0.13l-0.001-0.002zM19.027 23.937c-0.032-0.052-0.074-0.097-0.124-0.132s-0.107-0.059-0.168-0.072c-0.034-0.007-0.069-0.011-0.104-0.011-0.112 0.001-0.219 0.042-0.304 0.113s-0.141 0.171-0.16 0.28c-0.087 0.343-0.287 0.647-0.568 0.865s-0.627 0.338-0.984 0.341h-1.188c-0.426-0.004-0.834-0.173-1.135-0.472s-0.472-0.702-0.476-1.124v-1.211c0.005-0.421 0.176-0.824 0.477-1.121s0.708-0.466 1.134-0.47h1.196c0.362-0.002 0.714 0.119 0.997 0.343s0.48 0.537 0.557 0.887c0.025 0.099 0.083 0.188 0.165 0.251s0.182 0.097 0.286 0.098c0.039 0 0.078-0.005 0.116-0.015 0.116-0.029 0.217-0.101 0.281-0.201s0.086-0.221 0.061-0.337c-0.123-0.555-0.436-1.052-0.885-1.407s-1.007-0.546-1.582-0.542h-1.186c-0.675 0.002-1.321 0.267-1.799 0.739s-0.747 1.111-0.751 1.778v1.211c0.003 0.668 0.273 1.307 0.751 1.779s1.124 0.737 1.799 0.739h1.181c0.575-0.001 1.133-0.195 1.581-0.551s0.762-0.852 0.889-1.407c0.014-0.059 0.017-0.121 0.007-0.181s-0.032-0.117-0.064-0.169l-0.001-0.002z"></path>
</symbol>
<symbol id="icon-kitchen" viewBox="0 0 32 32">
<path d="M16.343 7.631c-0.32 0.172-0.591 0.424-0.785 0.731s-0.307 0.659-0.325 1.023c0 0.122 0.049 0.24 0.135 0.326s0.204 0.135 0.326 0.135c0.122 0 0.24-0.049 0.326-0.135s0.135-0.204 0.135-0.326c0-0.449 0.266-0.666 0.735-1.013 0.321-0.172 0.591-0.425 0.786-0.732s0.306-0.66 0.325-1.024c-0.019-0.363-0.131-0.715-0.325-1.023s-0.465-0.559-0.785-0.731c-0.47-0.346-0.735-0.564-0.735-1.013s0.266-0.666 0.735-1.013c0.321-0.173 0.592-0.425 0.787-0.733s0.306-0.661 0.324-1.025c0-0.122-0.049-0.24-0.135-0.326s-0.204-0.135-0.326-0.135c-0.122 0-0.24 0.049-0.326 0.135s-0.135 0.204-0.135 0.326c0 0.449-0.266 0.666-0.735 1.013-0.321 0.172-0.591 0.425-0.786 0.732s-0.306 0.66-0.325 1.024c0.019 0.363 0.131 0.715 0.325 1.023s0.465 0.559 0.785 0.731c0.47 0.346 0.735 0.564 0.735 1.013s-0.266 0.669-0.735 1.018zM22.497 8.861c-0.32 0.172-0.591 0.424-0.785 0.731s-0.307 0.659-0.326 1.023c0 0.122 0.049 0.24 0.135 0.326s0.204 0.135 0.326 0.135c0.122 0 0.24-0.049 0.326-0.135s0.135-0.204 0.135-0.326c0-0.449 0.266-0.666 0.735-1.013 0.321-0.172 0.591-0.425 0.786-0.732s0.306-0.66 0.325-1.024c-0.019-0.363-0.131-0.715-0.325-1.023s-0.465-0.559-0.786-0.731c-0.47-0.346-0.735-0.564-0.735-1.013s0.266-0.666 0.735-1.013c0.321-0.173 0.592-0.425 0.787-0.733s0.306-0.661 0.324-1.025c0-0.122-0.049-0.24-0.135-0.326s-0.204-0.135-0.326-0.135c-0.122 0-0.24 0.049-0.326 0.135s-0.135 0.204-0.135 0.326c0 0.449-0.266 0.666-0.735 1.013-0.321 0.172-0.591 0.425-0.786 0.732s-0.306 0.66-0.325 1.024c0.019 0.363 0.131 0.715 0.325 1.023s0.465 0.559 0.785 0.731c0.47 0.346 0.735 0.564 0.735 1.013s-0.266 0.669-0.735 1.018zM10.189 8.861c-0.32 0.172-0.591 0.424-0.785 0.731s-0.307 0.659-0.325 1.023c0 0.122 0.049 0.24 0.135 0.326s0.204 0.135 0.326 0.135c0.122 0 0.24-0.049 0.326-0.135s0.135-0.204 0.135-0.326c0-0.449 0.266-0.666 0.735-1.013 0.321-0.172 0.591-0.425 0.786-0.732s0.306-0.66 0.325-1.024c-0.019-0.363-0.131-0.715-0.325-1.023s-0.465-0.559-0.786-0.731c-0.47-0.346-0.735-0.564-0.735-1.013s0.266-0.666 0.735-1.013c0.321-0.173 0.592-0.425 0.787-0.733s0.306-0.661 0.324-1.025c0-0.122-0.049-0.24-0.135-0.326s-0.204-0.135-0.326-0.135-0.24 0.049-0.326 0.135c-0.087 0.087-0.135 0.204-0.135 0.326 0 0.449-0.266 0.666-0.735 1.013-0.321 0.172-0.591 0.425-0.786 0.732s-0.306 0.66-0.325 1.024c0.019 0.363 0.131 0.715 0.325 1.023s0.465 0.559 0.786 0.731c0.47 0.346 0.735 0.564 0.735 1.013s-0.266 0.669-0.735 1.018zM3.386 26.923c0.122 0 0.24-0.049 0.326-0.135s0.135-0.204 0.135-0.326c0-3.223 1.28-6.315 3.56-8.594s5.371-3.56 8.594-3.56 6.315 1.28 8.594 3.56c2.279 2.279 3.56 5.371 3.56 8.594 0 0.122 0.049 0.24 0.135 0.326s0.204 0.135 0.326 0.135c0.122 0 0.24-0.049 0.326-0.135s0.135-0.204 0.135-0.326c-0.006-2.961-1.015-5.833-2.863-8.146s-4.426-3.932-7.312-4.592c-0.079-1.497-1.535-2.492-2.902-2.492s-2.823 0.996-2.902 2.489c-2.887 0.66-5.465 2.279-7.313 4.593s-2.857 5.187-2.862 8.148c0 0.122 0.049 0.24 0.135 0.326s0.204 0.135 0.326 0.135zM16.001 12.154c0.433-0.014 0.858 0.114 1.21 0.366s0.612 0.612 0.738 1.026c-0.645-0.102-1.296-0.156-1.948-0.161-0.652 0.005-1.303 0.059-1.947 0.161 0.131-0.411 0.392-0.768 0.742-1.019s0.773-0.382 1.205-0.373zM31.131 26.51c-0.11-0.055-0.236-0.064-0.352-0.025s-0.212 0.122-0.267 0.232c-0.438 0.875-0.942 1.283-1.587 1.283h-25.846c-0.645 0-1.15-0.408-1.587-1.283-0.027-0.055-0.064-0.104-0.11-0.144s-0.099-0.071-0.157-0.090c-0.058-0.020-0.119-0.027-0.179-0.023s-0.12 0.020-0.175 0.048c-0.054 0.027-0.103 0.065-0.143 0.111s-0.070 0.1-0.089 0.157c-0.019 0.058-0.026 0.119-0.022 0.18s0.021 0.12 0.049 0.174c0.595 1.191 1.407 1.794 2.413 1.794h3.245c0.074 1.498 1.193 2.462 2.909 2.462h13.538c1.716 0 2.834-0.964 2.909-2.462h3.245c1.006 0 1.818-0.603 2.413-1.794 0.055-0.11 0.064-0.236 0.025-0.352s-0.122-0.212-0.232-0.267zM22.771 30.462h-13.538c-0.453 0-1.891-0.117-1.99-1.538h17.519c-0.099 1.421-1.537 1.538-1.99 1.538z"></path>
</symbol>
<symbol id="icon-LiqPay" viewBox="0 0 162 32">
<path d="M143.066 15.092l-11.216-12.506 3.111-2.586 13.533 15.092-13.533 15.091-3.111-2.583 11.216-12.508zM156.705 15.092l-11.215-12.506 3.11-2.586 13.533 15.092-13.533 15.091-3.11-2.583 11.215-12.508zM14 26.667c0 0.267-0.014 0.491-0.042 0.672s-0.073 0.334-0.136 0.461c-0.063 0.128-0.139 0.221-0.23 0.281s-0.198 0.090-0.323 0.090h-11.934c-0.32 0-0.623-0.103-0.908-0.311s-0.428-0.572-0.428-1.093v-24.020c0-0.107 0.028-0.201 0.084-0.281s0.153-0.144 0.292-0.191c0.139-0.047 0.327-0.087 0.563-0.12s0.522-0.050 0.856-0.050c0.347 0 0.636 0.017 0.866 0.050s0.414 0.074 0.553 0.12c0.139 0.047 0.237 0.11 0.292 0.191s0.084 0.174 0.084 0.281v22.437h9.681c0.125 0 0.233 0.030 0.323 0.090s0.167 0.147 0.23 0.26c0.063 0.113 0.108 0.264 0.136 0.451s0.042 0.414 0.042 0.682zM21.469 27.93c0.055-0.080 0.084-0.173 0.084-0.281v-24.902c0-0.107-0.028-0.2-0.084-0.281s-0.153-0.144-0.292-0.191c-0.14-0.047-0.324-0.087-0.553-0.12s-0.518-0.050-0.866-0.050c-0.321 0-0.595 0.017-0.825 0.050s-0.417 0.074-0.563 0.12c-0.146 0.047-0.25 0.11-0.313 0.191s-0.094 0.174-0.094 0.281v24.902c0 0.108 0.028 0.2 0.084 0.281s0.153 0.144 0.292 0.191c0.139 0.047 0.327 0.087 0.563 0.12s0.522 0.050 0.856 0.050c0.347 0 0.636-0.017 0.866-0.050s0.414-0.073 0.553-0.12c0.139-0.047 0.236-0.11 0.292-0.191zM54.664 30.457c0 0.307-0.017 0.564-0.052 0.771s-0.087 0.368-0.156 0.481c-0.070 0.113-0.146 0.191-0.23 0.231s-0.167 0.060-0.25 0.060c-0.278 0-0.727-0.11-1.346-0.33s-1.332-0.542-2.138-0.962c-0.807-0.421-1.669-0.933-2.587-1.534s-1.808-1.303-2.67-2.105c-0.681 0.401-1.544 0.749-2.587 1.042s-2.253 0.441-3.63 0.441c-2.031 0-3.787-0.288-5.268-0.862s-2.706-1.417-3.672-2.526c-0.967-1.11-1.687-2.489-2.16-4.14s-0.709-3.546-0.709-5.684c0-2.058 0.257-3.92 0.772-5.584s1.287-3.081 2.316-4.251c1.029-1.169 2.316-2.072 3.86-2.707s3.345-0.953 5.404-0.953c1.933 0 3.634 0.288 5.101 0.862s2.698 1.414 3.693 2.516c0.994 1.103 1.742 2.463 2.243 4.080s0.751 3.476 0.751 5.574c0 1.083-0.066 2.119-0.198 3.108s-0.341 1.925-0.626 2.807c-0.286 0.882-0.644 1.698-1.074 2.446-0.432 0.749-0.939 1.424-1.523 2.025 1.015 0.802 1.906 1.427 2.67 1.875s1.398 0.786 1.898 1.012c0.501 0.227 0.89 0.391 1.168 0.491 0.278 0.1 0.486 0.214 0.626 0.341s0.237 0.307 0.292 0.541c0.055 0.234 0.084 0.545 0.084 0.932zM47.57 15.118c0-1.471-0.135-2.834-0.407-4.091s-0.723-2.349-1.356-3.278c-0.633-0.929-1.478-1.654-2.535-2.175s-2.365-0.782-3.923-0.782-2.865 0.277-3.923 0.832c-1.057 0.555-1.916 1.303-2.577 2.246s-1.134 2.035-1.419 3.278c-0.285 1.243-0.428 2.56-0.428 3.95 0 1.524 0.132 2.924 0.396 4.2s0.709 2.383 1.335 3.319c0.626 0.936 1.464 1.661 2.514 2.175s2.368 0.772 3.954 0.772c1.572 0 2.893-0.281 3.964-0.842s1.933-1.32 2.587-2.276c0.654-0.956 1.119-2.066 1.398-3.328 0.279-1.264 0.418-2.598 0.418-4.001zM73.4 13.334c0.445-1.043 0.668-2.212 0.668-3.509 0-0.975-0.143-1.868-0.428-2.677s-0.692-1.52-1.22-2.135c-0.529-0.614-1.172-1.133-1.93-1.554s-1.502-0.708-2.232-0.862c-0.73-0.154-1.363-0.253-1.898-0.301s-1.095-0.070-1.68-0.070h-5.779c-0.362 0-0.689 0.114-0.981 0.341s-0.438 0.608-0.438 1.143v23.94c0 0.108 0.028 0.2 0.084 0.281s0.153 0.144 0.292 0.191c0.139 0.047 0.324 0.087 0.553 0.12s0.518 0.050 0.866 0.050c0.348 0 0.636-0.017 0.866-0.050s0.41-0.073 0.542-0.12c0.132-0.047 0.229-0.11 0.292-0.191s0.094-0.173 0.094-0.281v-9.343h3.067c1.669 0 3.105-0.201 4.308-0.602s2.219-0.969 3.047-1.704c0.828-0.735 1.463-1.624 1.909-2.667zM69.675 7.458c0.41 0.709 0.616 1.591 0.616 2.647 0 0.775-0.125 1.494-0.375 2.155s-0.619 1.23-1.106 1.704c-0.487 0.475-1.089 0.846-1.805 1.113s-1.617 0.401-2.702 0.401h-3.234v-10.406h3.317c0.612 0 1.242 0.047 1.888 0.14s1.273 0.314 1.878 0.662c0.605 0.348 1.113 0.876 1.523 1.584zM99.771 26.948c0.111 0.294 0.17 0.531 0.177 0.712s-0.046 0.318-0.156 0.411c-0.111 0.093-0.295 0.153-0.553 0.18s-0.602 0.041-1.033 0.041c-0.431 0-0.775-0.010-1.033-0.030s-0.452-0.054-0.584-0.1c-0.132-0.047-0.23-0.11-0.292-0.19s-0.122-0.181-0.177-0.301l-2.316-6.316h-11.225l-2.212 6.236c-0.042 0.12-0.097 0.224-0.167 0.31-0.070 0.087-0.17 0.161-0.302 0.221s-0.32 0.103-0.563 0.13c-0.244 0.026-0.56 0.040-0.949 0.040-0.403 0-0.734-0.017-0.991-0.050s-0.438-0.097-0.542-0.191c-0.104-0.093-0.154-0.231-0.146-0.411s0.066-0.418 0.177-0.712l9.055-24.101c0.055-0.147 0.129-0.267 0.219-0.361s0.223-0.167 0.396-0.221c0.174-0.053 0.397-0.090 0.668-0.11s0.616-0.030 1.033-0.030c0.445 0 0.814 0.010 1.106 0.030s0.529 0.057 0.709 0.11c0.181 0.054 0.32 0.13 0.417 0.231s0.174 0.224 0.23 0.371l9.055 24.1zM88.15 5.674h-0.021l-4.652 12.932h9.389l-4.715-12.932zM112.874 27.649v-9.564l7.636-14.637c0.153-0.294 0.247-0.527 0.282-0.702s-0.003-0.307-0.115-0.401c-0.112-0.094-0.31-0.157-0.595-0.191s-0.678-0.050-1.179-0.050c-0.362 0-0.661 0.014-0.897 0.040s-0.421 0.064-0.553 0.11c-0.133 0.047-0.237 0.117-0.313 0.211s-0.135 0.207-0.177 0.341l-3.755 7.499c-0.347 0.735-0.69 1.48-1.029 2.235s-0.668 1.514-0.985 2.276h-0.042c-0.36-0.789-0.713-1.57-1.058-2.346s-0.692-1.517-1.038-2.226l-3.734-7.459c-0.070-0.133-0.142-0.244-0.219-0.331s-0.191-0.154-0.344-0.201c-0.153-0.047-0.358-0.083-0.616-0.11s-0.595-0.040-1.012-0.040c-0.459 0-0.824 0.014-1.095 0.040s-0.459 0.087-0.563 0.18c-0.105 0.094-0.14 0.227-0.105 0.401 0.034 0.174 0.128 0.415 0.282 0.722l7.636 14.637v9.564c0 0.108 0.027 0.2 0.083 0.281s0.155 0.144 0.301 0.191c0.145 0.047 0.332 0.087 0.56 0.12s0.515 0.050 0.861 0.050c0.332 0 0.615-0.017 0.85-0.050s0.422-0.073 0.56-0.12 0.235-0.11 0.291-0.191c0.055-0.080 0.083-0.173 0.083-0.281z"></path>
</symbol>
<symbol id="icon-logo_carreblanc" viewBox="0 0 115 32">
<path d="M68.458 25.207c-0.174-0.203-0.298-0.443-0.363-0.702l0.616-0.509c0.040 0.354 0.218 0.679 0.494 0.904 0.317 0.251 0.713 0.381 1.117 0.365 0.287 0.024 0.571-0.067 0.792-0.252s0.357-0.45 0.383-0.737c0-0.51-0.338-0.775-1.347-1.010-0.525-0.060-1.020-0.277-1.42-0.622-0.127-0.12-0.227-0.265-0.296-0.425s-0.105-0.333-0.106-0.507c0-0.844 0.782-1.42 1.937-1.42 0.39-0.045 0.785 0.041 1.121 0.244s0.595 0.513 0.736 0.88l-0.537 0.51c-0.069-0.304-0.249-0.571-0.504-0.75s-0.569-0.256-0.878-0.217c-0.696 0-1.125 0.279-1.125 0.752 0 0.502 0.767 0.68 1.273 0.81 0.81 0.179 1.926 0.487 1.926 1.691 0 1.016-0.83 1.697-2.090 1.697-0.322 0.019-0.645-0.035-0.944-0.156s-0.568-0.308-0.786-0.545zM63.883 25.723v-5.286h0.722v5.286h-0.722zM59.727 25.723l-1.273-2.378h-1.326v2.378h-0.724v-5.286h2.242c0.205-0.020 0.411 0.002 0.607 0.065s0.376 0.165 0.531 0.301c0.154 0.136 0.28 0.301 0.368 0.487s0.137 0.387 0.144 0.593c0.019 0.324-0.085 0.644-0.291 0.895s-0.499 0.415-0.821 0.46l1.318 2.486h-0.773zM57.126 22.722h1.389c0.661 0 1.019-0.294 1.019-0.838s-0.358-0.83-1.082-0.83h-1.326v1.668zM52.536 25.723l-0.56-1.274h-2.67l-0.56 1.274h-0.744l2.324-5.286h0.646l2.305 5.286h-0.74zM49.586 23.797h2.106l-1.047-2.413-1.059 2.413zM41.762 25.723v-5.286h2.172c0.218-0.017 0.437 0.011 0.644 0.083s0.396 0.187 0.555 0.337c0.16 0.15 0.286 0.331 0.372 0.532s0.128 0.418 0.125 0.637c0 0.945-0.717 1.549-1.841 1.549h-1.304v2.141l-0.723 0.006zM42.479 22.952h0.775c0.751 0 1.569-0.022 1.569-0.924 0-0.646-0.381-0.952-1.162-0.952h-1.183l0.001 1.876zM2.723 9.683c0-3.196 2.265-5.215 5.73-5.215 1.836 0 3.627 0.408 3.627 1.103v0.331c0.003 0.050-0.005 0.099-0.023 0.146s-0.045 0.088-0.080 0.124-0.077 0.062-0.124 0.080c-0.046 0.018-0.096 0.025-0.146 0.023-0.136-0.019-0.267-0.063-0.387-0.129-0.859-0.401-1.796-0.606-2.744-0.602-0.553-0.056-1.111 0.010-1.635 0.193s-1.003 0.478-1.401 0.865-0.708 0.856-0.906 1.375c-0.198 0.519-0.281 1.075-0.242 1.629 0 2.479 1.569 3.947 4.297 3.947 0.957 0.002 1.905-0.19 2.786-0.566 0.067-0.030 0.136-0.056 0.207-0.079 0.023 0 0.045-0.008 0.074-0.008 0.045-0.004 0.090 0.003 0.132 0.018s0.080 0.041 0.112 0.073 0.056 0.071 0.071 0.113c0.015 0.043 0.020 0.088 0.016 0.133v0.408c0 0.63-1.778 0.981-3.604 0.981-3.565 0.004-5.76-1.85-5.76-4.941zM41.739 9.603c-0.018-0.692 0.108-1.38 0.37-2.021s0.654-1.22 1.152-1.702 1.090-0.854 1.739-1.095c0.649-0.241 1.341-0.344 2.032-0.303 2.699 0 4.784 1.711 4.784 4.062v0.501c-0.003 0.053-0.017 0.105-0.040 0.153s-0.056 0.090-0.096 0.125c-0.040 0.035-0.087 0.061-0.138 0.078s-0.104 0.022-0.157 0.018h-7.956c-0.117 1.010 0.168 2.026 0.794 2.828 0.351 0.408 0.794 0.727 1.291 0.932 0.657 0.26 1.359 0.387 2.066 0.372 0.943 0.009 1.874-0.213 2.712-0.646 0.145-0.086 0.305-0.145 0.471-0.172 0.047-0 0.094 0.010 0.137 0.029s0.081 0.047 0.113 0.083c0.031 0.035 0.055 0.077 0.069 0.121s0.018 0.092 0.013 0.139v0.345c0 0.687-1.876 1.162-3.631 1.162-3.485 0.003-5.726-1.932-5.726-5.005l0.003-0.004zM43.436 8.364h6.714c-0.014-0.402-0.11-0.796-0.282-1.159s-0.418-0.687-0.72-0.951c-0.303-0.265-0.656-0.464-1.039-0.587s-0.787-0.165-1.187-0.125c-0.828-0.043-1.642 0.222-2.286 0.744s-1.072 1.264-1.202 2.082l0.003-0.004zM14.154 11.967c0-1.42 1.033-2.213 3.525-2.97l2.841-0.844c0.56-0.158 0.646-0.287 0.646-0.724v-0.328c0-1.047-0.68-1.569-2.313-1.569-1.144-0.012-2.273 0.266-3.281 0.808-0.104 0.067-0.223 0.107-0.346 0.115-0.049-0.002-0.096-0.014-0.14-0.034s-0.083-0.050-0.116-0.086c-0.033-0.036-0.058-0.078-0.074-0.124s-0.023-0.095-0.020-0.143v-0.38c0-0.287 0.194-0.43 0.595-0.566 1.149-0.391 2.352-0.599 3.566-0.616 1.052-0.124 2.113 0.144 2.981 0.751 0.291 0.231 0.517 0.533 0.658 0.876s0.19 0.718 0.144 1.086v6.877c-0.008 0.105-0.057 0.203-0.136 0.272s-0.182 0.105-0.287 0.1h-0.529c-0.258 0-0.471-0.101-0.471-0.372v-0.123c-0.016 0-0.030-0.008-0.058-0.008-0.037 0.006-0.073 0.016-0.108 0.028l-0.307 0.101c-0.91 0.336-1.871 0.511-2.841 0.517-2.368-0.006-3.929-0.952-3.929-2.642l0.001-0.004zM18.739 9.818c-2.249 0.658-2.931 1.216-2.931 2.171 0 0.904 0.91 1.561 2.386 1.561 2.027 0 2.97-0.436 2.97-1.059v-3.357l-2.425 0.684zM102.002 9.473c0-3.215 2.421-5.165 6.231-5.165 1.007-0.008 2.007 0.157 2.958 0.487 0.272 0.085 0.537 0.2 0.537 0.529v0.904c0.004 0.064-0.005 0.129-0.027 0.19s-0.056 0.116-0.1 0.163c-0.044 0.047-0.098 0.084-0.157 0.11s-0.123 0.038-0.188 0.038c-0.156-0.011-0.308-0.055-0.447-0.129-0.814-0.404-1.711-0.611-2.62-0.602-0.47-0.065-0.948-0.024-1.4 0.121s-0.865 0.39-1.209 0.717c-0.344 0.327-0.61 0.727-0.778 1.171s-0.234 0.92-0.192 1.393c-0.041 0.48 0.027 0.963 0.196 1.414s0.438 0.858 0.786 1.192 0.765 0.586 1.221 0.739c0.458 0.152 0.943 0.2 1.421 0.141 0.864-0.005 1.716-0.195 2.499-0.559l0.109-0.036c0.125-0.077 0.268-0.122 0.415-0.129 0.066 0.001 0.131 0.015 0.19 0.042s0.114 0.066 0.158 0.114c0.044 0.048 0.078 0.105 0.099 0.167s0.029 0.128 0.025 0.193v0.767c0.013 0.129-0.020 0.259-0.094 0.367s-0.182 0.185-0.308 0.22c-1.091 0.379-2.24 0.566-3.395 0.553-3.692 0.004-5.933-1.868-5.933-5.107l0.001-0.005zM75.543 11.78c0.016-0.48 0.168-0.946 0.438-1.342s0.648-0.709 1.089-0.899c1.036-0.519 2.124-0.924 3.246-1.21l1.669-0.457c0.507-0.151 0.55-0.25 0.55-0.422v-0.43c0-0.66-0.458-1.017-1.808-1.017-1.163-0.007-2.313 0.235-3.374 0.709-0.146 0.1-0.317 0.155-0.494 0.157-0.063 0.009-0.127 0.004-0.187-0.015s-0.116-0.050-0.163-0.092-0.084-0.094-0.109-0.153c-0.025-0.058-0.037-0.121-0.035-0.184v-0.767c-0.021-0.127-0.001-0.256 0.057-0.371s0.151-0.207 0.266-0.266c1.394-0.488 2.862-0.728 4.34-0.709 2.564 0 4.025 0.904 4.025 2.779v6.882c-0.011 0.128-0.070 0.247-0.167 0.333s-0.221 0.13-0.35 0.126h-1.175c-0.35 0-0.558-0.143-0.587-0.458-0.159 0.012-0.316 0.049-0.464 0.108l-0.409 0.15c-0.751 0.24-1.535 0.361-2.324 0.358-2.323 0.001-4.031-1.099-4.031-2.803l-0.003-0.005zM80.38 9.989c-1.87 0.523-2.23 0.888-2.23 1.719 0 0.737 0.56 1.183 1.95 1.183 0.634-0 1.264-0.097 1.868-0.288 0.471-0.186 0.566-0.3 0.566-0.808v-2.437l-2.154 0.631zM58.025 14.12l-0.079-0.036c-0.079-0.043-0.129-0.072-0.179-0.093-0.008 0.301-0.3 0.438-0.564 0.438h-1.405c-0.129 0.006-0.255-0.038-0.352-0.124s-0.156-0.206-0.165-0.335v-12.871c0.009-0.129 0.068-0.249 0.165-0.335s0.223-0.13 0.352-0.124h1.447c0.064-0.004 0.128 0.005 0.189 0.026s0.117 0.054 0.164 0.096c0.048 0.043 0.087 0.094 0.115 0.152s0.044 0.12 0.048 0.184v3.832c0.043-0.009 0.084-0.026 0.121-0.050l0.194-0.080c0.791-0.342 1.645-0.51 2.506-0.493 3.511 0 5.773 1.937 5.773 5.014 0 3.172-2.429 5.264-6.001 5.264-0.801 0.018-1.597-0.139-2.332-0.46l0.003-0.006zM58.647 6.185c-0.717 0.236-0.881 0.444-0.881 0.888v4.82c0 0.523 0.781 1.002 2.386 1.002 0.902 0.019 1.786-0.253 2.522-0.775 0.396-0.33 0.702-0.754 0.891-1.234s0.253-0.999 0.188-1.51c0-2.134-1.331-3.38-3.73-3.38-0.466 0.001-0.93 0.069-1.378 0.2l0.001-0.012zM35.106 14.448c-0.106 0.005-0.21-0.030-0.29-0.099s-0.131-0.167-0.141-0.272v-9.062c0.008-0.107 0.058-0.207 0.139-0.277s0.186-0.108 0.293-0.102h0.58c0.214 0 0.387 0.099 0.387 0.337v0.208c0 0.099 0.027 0.107 0.085 0.107 0.045-0.006 0.089-0.021 0.129-0.043 0.94-0.386 1.943-0.592 2.958-0.609h0.444c0.381 0 0.603 0.121 0.603 0.509v0.422c0 0.309-0.172 0.444-0.474 0.444-0.088 0.002-0.177-0.003-0.265-0.014-0.536-0.089-1.077-0.146-1.619-0.172-1.18 0-1.604 0.387-1.604 1.261v6.99c-0.010 0.108-0.063 0.208-0.146 0.277s-0.19 0.104-0.298 0.095h-0.781zM26.949 14.448c-0.104 0.005-0.206-0.031-0.284-0.101s-0.125-0.167-0.132-0.271v-9.062c0.005-0.105 0.052-0.205 0.13-0.276s0.181-0.109 0.286-0.104h0.58c0.222 0 0.402 0.099 0.402 0.337v0.208c0 0.099 0.021 0.107 0.085 0.107 0.045-0.008 0.088-0.022 0.129-0.043 0.939-0.386 1.943-0.593 2.958-0.609h0.436c0.381 0 0.611 0.121 0.611 0.509v0.422c0 0.309-0.187 0.444-0.474 0.444-0.091 0.002-0.182-0.003-0.272-0.014-0.533-0.088-1.071-0.145-1.611-0.172-1.188 0-1.611 0.387-1.611 1.261v6.99c-0.010 0.108-0.063 0.208-0.146 0.277s-0.19 0.104-0.299 0.095h-0.788zM96.912 14.427c-0.129 0.006-0.255-0.038-0.352-0.124s-0.155-0.206-0.164-0.335v-5.939c0-1.374-0.744-2.034-2.479-2.034-0.537-0.005-1.070 0.073-1.582 0.23-0.63 0.192-0.781 0.408-0.781 0.81v6.932c-0.003 0.064-0.020 0.127-0.048 0.184s-0.067 0.109-0.115 0.152c-0.048 0.043-0.103 0.075-0.164 0.096s-0.125 0.030-0.189 0.026h-1.456c-0.129 0.006-0.255-0.038-0.352-0.124s-0.155-0.206-0.164-0.335v-9.046c0.008-0.129 0.067-0.25 0.163-0.337s0.223-0.133 0.353-0.128h1.125c0.416 0 0.603 0.115 0.616 0.479h0.015c0.21-0.008 0.417-0.056 0.609-0.142 0.302-0.101 0.466-0.15 0.566-0.173 0.703-0.213 1.435-0.318 2.169-0.314 2.545 0 4.226 1.291 4.226 3.451v6.211c-0.010 0.128-0.070 0.247-0.166 0.333s-0.222 0.13-0.35 0.126h-1.48zM70.232 14.427c-0.129 0.005-0.254-0.040-0.351-0.126s-0.156-0.205-0.166-0.333v-12.871c0.010-0.128 0.070-0.247 0.166-0.333s0.222-0.13 0.351-0.126h1.447c0.129-0.006 0.255 0.038 0.352 0.124s0.156 0.206 0.165 0.335v12.871c-0.010 0.128-0.070 0.247-0.166 0.333s-0.222 0.13-0.351 0.126h-1.447zM45.591 3.227c0-0.23 0.187-0.345 0.343-0.457l2.077-1.52c0.285-0.242 0.631-0.398 1.001-0.452 0.134 0.006 0.266 0.041 0.386 0.101s0.226 0.146 0.31 0.25c0.093 0.104 0.15 0.234 0.164 0.372 0 0.301-0.28 0.487-0.881 0.767l-2.6 1.211c-0.12 0.058-0.248 0.095-0.381 0.107-0.105 0.003-0.208-0.035-0.286-0.106s-0.126-0.169-0.134-0.274z"></path>
</symbol>
<symbol id="icon-search" viewBox="0 0 27 27">
<path fill="none" stroke-linejoin="miter" stroke-linecap="butt" stroke-miterlimit="4" stroke-width="1.28" stroke="#28292f" style="stroke: var(--color3, #28292f)" d="M22.4 12.16c0 5.655-4.585 10.24-10.24 10.24s-10.24-4.585-10.24-10.24c0-5.655 4.585-10.24 10.24-10.24s10.24 4.585 10.24 10.24z"></path>
<path fill="none" stroke-linejoin="round" stroke-linecap="round" stroke-miterlimit="4" stroke-width="1.28" stroke="#28292f" style="stroke: var(--color3, #28292f)" d="M30.080 30.72l-10.88-10.88"></path>
</symbol>
<symbol id="icon-Visa" viewBox="0 0 105 32">
<path d="M75.995 1.319c-1.67-0.627-4.319-1.319-7.595-1.319-8.362 0-14.251 4.218-14.287 10.248-0.070 4.449 4.216 6.92 7.421 8.404 3.276 1.516 4.39 2.505 4.39 3.857-0.034 2.075-2.647 3.032-5.085 3.032-3.381 0-5.192-0.493-7.945-1.648l-1.115-0.495-1.185 6.954c1.986 0.856 5.645 1.615 9.444 1.648 8.885 0 14.67-4.153 14.738-10.579 0.034-3.526-2.229-6.228-7.108-8.436-2.962-1.417-4.775-2.373-4.775-3.823 0.035-1.318 1.534-2.669 4.877-2.669 2.753-0.066 4.775 0.56 6.308 1.186l0.766 0.329 1.152-6.689zM45.297 31.539h-8.468l5.296-30.977h8.467l-5.296 30.977zM90.63 11.898c0 0-2.683 6.887-3.381 8.667h7.038c-0.348-1.549-1.952-8.964-1.952-8.964l-0.592-2.669c-0.249 0.686-0.609 1.629-0.852 2.267l-0 0.001-0.001 0.002c-0.165 0.432-0.276 0.723-0.262 0.696zM91.152 0.562h6.55l6.832 30.976h-7.84c0 0-0.767-3.559-1.011-4.647h-10.872c-0.314 0.823-1.777 4.647-1.777 4.647h-8.885l12.578-28.406c0.871-2.010 2.406-2.57 4.426-2.57zM29.757 0.562l-8.293 21.123-0.906-4.283c0 0 0 0 0 0l-2.962-14.237c-0.488-1.978-1.986-2.539-3.833-2.604h-13.624l-0.139 0.626c3.323 0.804 6.295 1.962 8.899 3.402l7.548 26.916h8.955l13.31-30.944h-8.954z"></path>
</symbol>
<symbol id="icon-youtube" viewBox="0 0 45 32">
<path d="M28.882 16.643l-12.116 5.898c-0.323 0.157-0.696-0.083-0.696-0.448v-12.164c0-0.37 0.383-0.61 0.706-0.443l12.116 6.266c0.36 0.186 0.354 0.714-0.011 0.891zM35.105 0h-25.903c-5.082 0-9.202 4.205-9.202 9.392v13.216c0 5.187 4.12 9.392 9.202 9.392h25.903c5.082 0 9.202-4.205 9.202-9.392v-13.216c0-5.187-4.12-9.392-9.202-9.392z"></path>
</symbol>
<symbol id="icon-sqad" viewBox="0 0 32 32">
<path fill="#858791" d="M0 0h32v32h-32v-32z"></path>
</symbol>
</defs>
</svg>
